<svg viewBox="0 0 512 512" xmlns="http://www.w3.org/2000/svg" xmlns:xlink="http://www.w3.org/1999/xlink">
    <style>
        :root>svg{display:none}:root>svg:target{display:block}
    </style>
    <svg fill="none" viewBox="0 0 78 78" id="amper" xmlns="http://www.w3.org/2000/svg">
        <path d="M39 0C17.497 0 0 17.492 0 38.998c0 21.505 17.497 38.997 39 38.997s39-17.492 39-38.997C78 17.492 60.503 0 39 0zm0 75.398c-20.07 0-36.398-16.33-36.398-36.4S18.93 2.598 39 2.598c20.07 0 36.398 16.33 36.398 36.4S59.07 75.398 39 75.398z" fill="#F93"/>
        <path d="M39.834 55.703H38.55l-4.936 12.238h1.25l1.492-3.84h5.588l1.474 3.84h1.285l-4.868-12.238zm1.749 7.456h-4.868l2.468-6.359 2.4 6.359zm-1.367-48.355a1.345 1.345 0 001.345-1.345V8.595a1.345 1.345 0 10-2.69 0v4.864c0 .745.603 1.345 1.345 1.345zM13.462 36.436H8.598a1.345 1.345 0 000 2.69h4.864a1.345 1.345 0 100-2.69zm49.731 1.345c0 .744.603 1.345 1.344 1.345h4.865a1.345 1.345 0 100-2.69h-4.865a1.345 1.345 0 00-1.345 1.345zM20.942 24.715a1.342 1.342 0 00.95-2.293l-3.83-3.833a1.344 1.344 0 00-1.9 1.9l3.831 3.83a1.327 1.327 0 00.949.396zm37.251 26.708a1.343 1.343 0 10-1.9 1.9l3.648 3.648a1.336 1.336 0 001.902 0 1.341 1.341 0 000-1.9l-3.65-3.648zm2.431-32.148a1.344 1.344 0 10-1.9-1.9l-3.83 3.83a1.346 1.346 0 00.437 2.193 1.345 1.345 0 001.465-.293l3.828-3.83zm-39.6 33.365l-3.649 3.648a1.342 1.342 0 00.952 2.293 1.345 1.345 0 00.95-.394l3.649-3.648a1.346 1.346 0 00-.438-2.192 1.343 1.343 0 00-1.464.292zM39 45.484a6.435 6.435 0 004.585-1.9 6.493 6.493 0 00.827-8.16l6.452-6.452a1.3 1.3 0 10-1.838-1.839l-6.46 6.46c-2.493-1.593-6.015-1.32-8.15.817A6.492 6.492 0 0039 45.484zm-2.291-8.778a3.214 3.214 0 012.291-.95 3.244 3.244 0 012.294 5.536c-1.224 1.225-3.36 1.225-4.585-.001a3.245 3.245 0 010-4.585z" fill="#F93"/>
    </svg>
    <svg fill="none" viewBox="0 0 33 114" id="arrow-left" xmlns="http://www.w3.org/2000/svg">
        <path d="M32 1L1 55.5 32 113" stroke="#F93"/>
    </svg>
    <svg fill="none" viewBox="0 0 33 114" id="arrow-right" xmlns="http://www.w3.org/2000/svg">
        <path d="M1 113l31-54.5L1 1" stroke="#F93"/>
    </svg>
    <svg fill="none" viewBox="0 0 21 21" id="cart" xmlns="http://www.w3.org/2000/svg">
        <path d="M7.91 19.136a.864.864 0 100-1.727.864.864 0 000 1.727zm9.5 0a.864.864 0 100-1.727.864.864 0 000 1.727zM1 1h3.455l2.314 11.564a1.727 1.727 0 001.727 1.39h8.395a1.727 1.727 0 001.727-1.39L20 5.318H5.318" stroke-width="2" stroke-linecap="round" stroke-linejoin="round"/>
    </svg>
    <svg fill="none" viewBox="0 0 45 45" id="clock" xmlns="http://www.w3.org/2000/svg">
        <path d="M27.046 40.824c-.372.092-.75.174-1.125.244a1.81 1.81 0 00-.712 3.257 1.8 1.8 0 001.37.3c.448-.083.899-.18 1.34-.29a1.808 1.808 0 10-.873-3.511zm13.377-24.248a1.808 1.808 0 103.435-1.137 22.479 22.479 0 00-.47-1.288 1.81 1.81 0 10-3.36 1.343c.142.355.275.719.395 1.082zM32.924 38.24c-.32.212-.649.416-.98.606a1.81 1.81 0 001.807 3.134c.395-.227.787-.47 1.167-.72a1.809 1.809 0 00-1.994-3.02zm12.059-16.611a1.81 1.81 0 00-3.615.142c.015.381.018.769.01 1.15a1.807 1.807 0 001.769 1.849A1.809 1.809 0 0044.995 23c.01-.455.006-.916-.012-1.371zm-4.855 11.853a1.81 1.81 0 00-2.533.361c-.23.306-.471.609-.72.9a1.81 1.81 0 002.756 2.345c.295-.347.584-.708.858-1.074.6-.799.438-1.932-.36-2.532zm2.659-6.54a1.809 1.809 0 00-2.267 1.186c-.114.364-.241.73-.378 1.088a1.81 1.81 0 003.38 1.288c.163-.426.314-.861.45-1.294a1.81 1.81 0 00-1.185-2.268zM19.153 41.084a18.68 18.68 0 01-4.64-1.475c-.018-.009-.033-.02-.051-.028a19.801 19.801 0 01-1.029-.52c0-.002-.003-.002-.005-.003a19.315 19.315 0 01-1.8-1.125c-8.51-5.994-10.555-17.795-4.56-26.304a18.799 18.799 0 014.64-4.616c.02-.016.043-.03.064-.046 6.197-4.27 14.612-4.558 21.193-.17L31.552 8.84c-.393.569-.151.983.536.921l6.14-.55c.688-.061 1.1-.657.915-1.322l-1.648-5.94c-.185-.666-.658-.746-1.05-.178l-1.417 2.047A22.34 22.34 0 0018.657.337c-.58.1-1.15.222-1.713.365l-.012.002-.065.018a22.307 22.307 0 00-12.369 8.29c-.026.031-.053.061-.077.095a21.323 21.323 0 00-.782 1.128c-.02.029-.034.058-.051.087A22.303 22.303 0 00.023 23.477v.046c.02.454.057.914.105 1.367.003.029.01.056.014.086.05.455.114.912.194 1.368C1.143 31 3.339 35.191 6.63 38.451l.023.024.009.007a22.792 22.792 0 002.882 2.409 22.305 22.305 0 008.97 3.754 1.808 1.808 0 10.638-3.561z" fill="#C9C9C9"/>
        <path d="M21.39 7.885c-.81 0-1.464.656-1.464 1.463v14.583l13.336 6.894a1.463 1.463 0 001.344-2.6l-11.754-6.077v-12.8c0-.807-.654-1.463-1.462-1.463z" fill="#C9C9C9"/>
    </svg>
    <svg fill="none" viewBox="0 0 30 30" id="close" xmlns="http://www.w3.org/2000/svg">
        <path d="M7 22L21.85 7.15M7 7l14.85 14.85" stroke="#F93" stroke-width="2"/>
    </svg>
    <svg viewBox="0 0 512 512" id="facebook" xmlns="http://www.w3.org/2000/svg">
        <path d="M452 0H60C26.916 0 0 26.916 0 60v392c0 33.084 26.916 60 60 60h392c33.084 0 60-26.916 60-60V60c0-33.084-26.916-60-60-60zm20 452c0 11.028-8.972 20-20 20H338V309h61.79L410 247h-72v-43c0-16.975 13.025-30 30-30h41v-62h-41c-50.923 0-91.978 41.25-91.978 92.174V247H216v62h60.022v163H60c-11.028 0-20-8.972-20-20V60c0-11.028 8.972-20 20-20h392c11.028 0 20 8.972 20 20v392z" data-original="#000000" class="gactive-path" data-old_color="#000000" fill="#FFF"/>
    </svg>
    <svg fill="none" viewBox="0 0 27 28" id="hamburger" xmlns="http://www.w3.org/2000/svg">
        <path fill="#fff" d="M0 0h27v28H0z"/>
        <path d="M3 9h21M3 14h21M3 19h21" stroke="#C8C8C8" stroke-width="2"/>
    </svg>
    <svg viewBox="0 0 512 512" id="instagram" xmlns="http://www.w3.org/2000/svg">
        <path d="M370.594 169.305a45.546 45.546 0 00-10.996-16.903 45.514 45.514 0 00-16.903-10.996c-5.18-2.011-12.96-4.406-27.293-5.058-15.504-.707-20.152-.86-59.402-.86-39.254 0-43.902.149-59.402.856-14.332.656-22.118 3.05-27.293 5.062a45.483 45.483 0 00-16.903 10.996 45.572 45.572 0 00-11 16.903c-2.011 5.18-4.406 12.965-5.058 27.297-.707 15.5-.86 20.148-.86 59.402 0 39.25.153 43.898.86 59.402.652 14.332 3.047 22.114 5.058 27.293a45.563 45.563 0 0010.996 16.903 45.514 45.514 0 0016.903 10.996c5.18 2.015 12.965 4.41 27.297 5.062 15.5.707 20.144.856 59.398.856 39.258 0 43.906-.149 59.402-.856 14.332-.652 22.118-3.047 27.297-5.062a48.68 48.68 0 0027.899-27.899c2.011-5.18 4.406-12.96 5.062-27.293.707-15.504.856-20.152.856-59.402 0-39.254-.149-43.902-.856-59.402-.652-14.332-3.047-22.118-5.062-27.297zM256 331.485c-41.691 0-75.488-33.794-75.488-75.485s33.797-75.484 75.488-75.484c41.688 0 75.484 33.793 75.484 75.484S297.688 331.484 256 331.484zm78.469-136.313c-9.742 0-17.64-7.899-17.64-17.64s7.898-17.641 17.64-17.641 17.64 7.898 17.64 17.64c-.004 9.742-7.898 17.64-17.64 17.64zm0 0" data-original="#000000" class="iactive-path" data-old_color="#000000" fill="#FFF"/>
        <path d="M305 256c0 27.063-21.938 49-49 49s-49-21.938-49-49 21.938-49 49-49 49 21.938 49 49zm0 0" data-original="#000000" class="iactive-path" data-old_color="#000000" fill="#FFF"/>
        <path d="M475.074 0H36.926C16.53 0 0 16.531 0 36.926v438.148C0 495.47 16.531 512 36.926 512h438.148C495.47 512 512 495.469 512 475.074V36.926C512 16.53 495.469 0 475.074 0zm-72.96 316.605c-.712 15.649-3.2 26.333-6.833 35.684a75.164 75.164 0 01-42.992 42.992c-9.348 3.633-20.035 6.117-35.68 6.832-15.675.715-20.683.887-60.605.887-39.926 0-44.93-.172-60.61-.887-15.644-.715-26.331-3.199-35.68-6.832a72.018 72.018 0 01-26.038-16.957 72.044 72.044 0 01-16.953-26.035c-3.633-9.348-6.121-20.035-6.832-35.68-.723-15.68-.891-20.687-.891-60.609s.168-44.93.887-60.605c.71-15.649 3.195-26.332 6.828-35.684a72.013 72.013 0 0116.96-26.035 72.003 72.003 0 0126.036-16.957c9.352-3.633 20.035-6.117 35.684-6.832C211.07 109.172 216.078 109 256 109s44.93.172 60.605.89c15.649.712 26.332 3.196 35.684 6.825a72.061 72.061 0 0126.04 16.96 72.027 72.027 0 0116.952 26.036c3.637 9.352 6.121 20.035 6.836 35.684.715 15.675.883 20.683.883 60.605s-.168 44.93-.887 60.605zm0 0" data-original="#000000" class="iactive-path" data-old_color="#000000" fill="#FFF"/>
    </svg>
    <svg fill="none" viewBox="0 0 17 18" id="moon" xmlns="http://www.w3.org/2000/svg">
        <path d="M13.908 2.646l-2.235 1.662.804 2.62-2.324-1.55-2.323 1.55.804-2.62-2.236-1.662 2.819-.077L10.153 0l.937 2.57 2.818.076zM17 8.564l-1.449 1.07.521 1.697-1.502-1.002-1.501 1.002.52-1.696-1.448-1.07 1.82-.044.61-1.67.61 1.67L17 8.564zm-2.014 4.24c.733-.069 1.52.942 1.051 1.584a7.392 7.392 0 01-.954 1.088c-3.454 3.365-9.047 3.365-12.492 0a8.371 8.371 0 010-12.11 8.72 8.72 0 011.122-.925c.662-.454 1.705.308 1.634 1.019A8.389 8.389 0 007.9 10.329a8.839 8.839 0 003.256 2.01 9.057 9.057 0 003.83.465zm-1.45 1.73a10.83 10.83 0 01-6.89-2.972C4.729 9.686 3.704 7.28 3.563 4.865c-2.483 2.689-2.386 6.817.273 9.403 2.668 2.578 6.927 2.672 9.7.266z" fill="#C9C9C9"/>
    </svg>
    <svg fill="none" viewBox="0 0 19 18" id="pagination-left" xmlns="http://www.w3.org/2000/svg">
        <path d="M11.889 4.556L7.444 9l4.445 4.444" stroke="#444" stroke-linecap="round" stroke-linejoin="round"/>
    </svg>
    <svg fill="none" viewBox="0 0 19 18" id="pagination-right" xmlns="http://www.w3.org/2000/svg">
        <path d="M7.333 13.444L11.778 9 7.333 4.556" stroke="#444" stroke-linecap="round" stroke-linejoin="round"/>
    </svg>
    <svg fill="none" viewBox="0 0 25 25" id="phone" xmlns="http://www.w3.org/2000/svg">
        <path d="M12.461 0C5.591 0 0 5.607 0 12.5S5.59 25 12.461 25a.769.769 0 00.769-.77.77.77 0 00-.769-.77c-6.024 0-10.924-4.917-10.924-10.959 0-6.043 4.9-10.959 10.924-10.959 6.025 0 10.924 4.916 10.924 10.96 0 2.524-1.34 5.028-3.257 6.087a4.698 4.698 0 01-2.258.583c.484-.29.903-.68 1.214-1.172.061-.093.142-.173.182-.275.25-.604.272-1.289.423-1.925.186-.816-3.554-2.406-3.879-1.39-.117.378-.297 1.568-.533 1.882-.21.279-.727.147-1.05-.129-.853-.729-1.804-1.8-2.64-2.646h.002a2.89 2.89 0 00-.07-.07l-.07-.07c-.845-.837-1.913-1.79-2.638-2.647-.275-.324-.408-.842-.128-1.053.312-.237 1.5-.415 1.875-.534 1.012-.325-.572-4.078-1.386-3.89-.634.148-1.317.171-1.92.422-.101.043-.18.122-.273.183-2.136 1.359-2.411 4.656-.327 7.112.795.94 1.623 1.848 2.476 2.736l-.004.003c.023.024.048.046.072.07.023.023.045.047.067.072l.005-.005c.885.856 1.934 2.116 3.638 3.257 3.589 2.403 6.342 1.732 7.964.84 2.8-1.547 4.053-4.85 4.053-7.438C24.923 5.607 19.333 0 12.462 0z" fill="#fff"/>
    </svg>
    <svg fill="none" viewBox="0 0 21 21" id="search" xmlns="http://www.w3.org/2000/svg">
        <path fill-rule="evenodd" clip-rule="evenodd" d="M0 8.281a8.265 8.265 0 008.281 8.281 8.254 8.254 0 005.393-1.988l5.594 5.594.901-.9-5.594-5.595a8.254 8.254 0 001.987-5.392A8.265 8.265 0 008.282 0 8.265 8.265 0 000 8.281zm1.274 0a6.987 6.987 0 017.007-7.007 6.987 6.987 0 017.007 7.007 6.987 6.987 0 01-7.007 7.007 6.987 6.987 0 01-7.007-7.007z" fill="#A4A8AC"/>
    </svg>
    <svg fill="none" viewBox="0 0 74 103" id="tongs" xmlns="http://www.w3.org/2000/svg">
        <path fill-rule="evenodd" clip-rule="evenodd" d="M63.046 1l5.204 1.914-3.019 3.664h-1.477l-7.597 11.047.594 4.028 3.369-2.12 6.625-11.58-1.063-1.583 2.845-3.216L73 5.255l-1.51 3.506-.004.008-5.838 13.166-3.001 11.69v5.408h3.084l-.91 22.932-4.72 30.798-1.683-.354-.861 9.591-5.872-.52.876-9.387-2.289-.35-1.037-24.106-.08-.008 2.688-28.596h2.134l-1.224-3.215-3.114-3.435h-5.808l-5.348 1.595L39.67 35.4 25.061 49.804 8.555 59.101 1 52.75l13.656-12.258L31.704 29.18l2.086 1.228 9.335-8.738 7.678-7.032L58.3 6.385l.009-.01L63.046 1zM50.95 67.095l2.472-26.294h3.091l-2.26-5.935-3.853-4.251h-6.82l-8.151 2.431 1.862 2.237L24.017 48.37l-15.268 8.6-5.073-4.265 12.036-10.802 16.047-10.649 2.268 1.335 10.26-9.606 7.738-7.086L59.59 7.57l3.967-4.502 1.764.649-.901 1.093h-1.571l-8.514 12.38 1.089 7.377 5.98-3.762 7.395-12.927-.911-1.358 1.074-1.214 1.762.827-.823 1.91-.004.008-5.894 13.293-3.095 12.054v7.403h3.013l-.833 20.991-4.424 28.864-1.8-.379-.88 9.809-2.403-.212.866-9.28-2.501-.383-.995-23.116z" fill="#F93" stroke="#F93"/>
    </svg>
    <svg viewBox="0 0 455 455" id="vk" xmlns="http://www.w3.org/2000/svg">
        <path d="M0 0v455h455V0H0zm341.098 251.727c10.445 10.19 21.49 19.784 30.865 31.049 4.142 4.978 8.06 10.113 11.046 15.881 4.239 8.264.397 17.318-6.985 17.817l-45.875-.02c-11.841.973-21.277-3.801-29.235-11.902-6.328-6.45-12.243-13.354-18.352-20.023-2.486-2.746-5.115-5.314-8.239-7.362-6.267-4.061-11.703-2.828-15.285 3.699-3.643 6.649-4.499 14.031-4.835 21.435-.499 10.807-3.76 13.634-14.607 14.154-23.208 1.075-45.218-2.451-65.659-14.134-18.052-10.307-32.022-24.879-44.184-41.356-23.702-32.124-41.855-67.391-58.154-103.673-3.684-8.177-.993-12.559 7.999-12.717 14.99-.296 29.974-.26 44.943-.02 6.089.102 10.129 3.582 12.458 9.334 8.101 19.906 18.01 38.85 30.448 56.427 3.327 4.677 6.71 9.334 11.504 12.636 5.314 3.663 9.375 2.466 11.881-3.485 1.595-3.78 2.293-7.8 2.629-11.841 1.192-13.833 1.335-27.681-.718-41.473-1.274-8.621-6.149-14.195-14.745-15.825-4.382-.836-3.725-2.446-1.615-4.958 3.704-4.315 7.189-7.006 14.093-7.006h51.847c8.177 1.595 10.011 5.278 11.122 13.497l.041 57.619c-.097 3.184 1.595 12.615 7.306 14.704 4.575 1.513 7.622-2.171 10.368-5.075 12.417-13.176 21.277-28.756 29.194-44.877 3.505-7.087 6.532-14.449 9.477-21.817 2.17-5.452 5.553-8.137 11.703-8.04l49.916.061c1.472 0 2.986 0 4.438.239 8.396 1.452 10.705 5.075 8.096 13.293-4.076 12.875-12.06 23.625-19.84 34.391-8.341 11.525-17.216 22.647-25.495 34.233-7.562 10.609-6.966 15.943 2.449 25.135z" data-original="#000000" class="qactive-path" data-old_color="#000000" fill="#FFF"/>
    </svg>
</svg>
