<svg width="78" height="78" viewBox="0 0 78 78" fill="none" xmlns="http://www.w3.org/2000/svg">
<path d="M39 0C17.4971 0 0 17.4922 0 38.9976C0 60.5029 17.4971 77.9951 39 77.9951C60.5029 77.9951 78 60.5029 78 38.9976C78 17.4922 60.5029 0 39 0ZM39 75.3976C18.9297 75.3976 2.60243 59.0679 2.60243 38.9976C2.60243 18.9272 18.9297 2.59757 39 2.59757C59.0703 2.59757 75.3976 18.9272 75.3976 38.9976C75.3976 59.0679 59.0703 75.3976 39 75.3976Z" fill="#FF9933"/>
<path d="M39.8343 55.7032H38.5489L33.6127 67.9409H34.8639L36.355 64.1016H41.9425L43.4165 67.9409H44.702L39.8343 55.7032ZM41.5826 63.159H36.7149L39.183 56.8002L41.5826 63.159Z" fill="#FF9933"/>
<path d="M40.2161 14.8043C40.5728 14.8043 40.9149 14.6626 41.1671 14.4103C41.4194 14.1581 41.5611 13.816 41.5611 13.4593V8.59493C41.5611 8.23822 41.4194 7.89611 41.1671 7.64388C40.9149 7.39164 40.5728 7.24994 40.2161 7.24994C39.8594 7.24994 39.5173 7.39164 39.265 7.64388C39.0128 7.89611 38.8711 8.23822 38.8711 8.59493V13.4593C38.8711 14.2035 39.4743 14.8043 40.2161 14.8043Z" fill="#FF9933"/>
<path d="M13.4619 36.4362H8.59756C8.24084 36.4362 7.89874 36.5779 7.6465 36.8301C7.39427 37.0823 7.25256 37.4244 7.25256 37.7812C7.25256 38.1379 7.39427 38.48 7.6465 38.7322C7.89874 38.9844 8.24084 39.1261 8.59756 39.1261H13.4619C13.6385 39.1261 13.8134 39.0914 13.9766 39.0238C14.1398 38.9562 14.2881 38.8571 14.413 38.7322C14.5379 38.6073 14.6369 38.459 14.7045 38.2959C14.7721 38.1327 14.8069 37.9578 14.8069 37.7812C14.8069 37.6045 14.7721 37.4296 14.7045 37.2664C14.6369 37.1033 14.5379 36.955 14.413 36.8301C14.2881 36.7052 14.1398 36.6061 13.9766 36.5385C13.8134 36.4709 13.6385 36.4362 13.4619 36.4362Z" fill="#FF9933"/>
<path d="M63.1925 37.7812C63.1925 38.5254 63.7957 39.1261 64.5375 39.1261H69.4019C69.5785 39.1261 69.7534 39.0914 69.9166 39.0238C70.0797 38.9562 70.228 38.8571 70.3529 38.7322C70.4778 38.6073 70.5769 38.459 70.6445 38.2959C70.7121 38.1327 70.7469 37.9578 70.7469 37.7812C70.7469 37.6045 70.7121 37.4296 70.6445 37.2664C70.5769 37.1033 70.4778 36.955 70.3529 36.8301C70.228 36.7052 70.0797 36.6061 69.9166 36.5385C69.7534 36.4709 69.5785 36.4362 69.4019 36.4362H64.5375C64.1808 36.4362 63.8387 36.5779 63.5864 36.8301C63.3342 37.0823 63.1925 37.4244 63.1925 37.7812Z" fill="#FF9933"/>
<path d="M20.9416 24.7154C21.2076 24.7161 21.4678 24.6377 21.6892 24.4902C21.9106 24.3428 22.0832 24.1328 22.185 23.8871C22.2869 23.6414 22.3135 23.3709 22.2614 23.1101C22.2094 22.8492 22.081 22.6097 21.8925 22.4219L18.0619 18.5888C17.9371 18.4641 17.7891 18.3651 17.6261 18.2976C17.4631 18.2301 17.2885 18.1954 17.1121 18.1954C16.9357 18.1954 16.761 18.2301 16.5981 18.2976C16.4351 18.3651 16.2871 18.4641 16.1623 18.5888C16.0376 18.7135 15.9387 18.8616 15.8712 19.0245C15.8037 19.1875 15.7689 19.3622 15.7689 19.5385C15.7689 19.7149 15.8037 19.8896 15.8712 20.0526C15.9387 20.2155 16.0376 20.3636 16.1623 20.4883L19.993 24.319C20.1168 24.4449 20.2644 24.5448 20.4273 24.6129C20.5902 24.681 20.765 24.7159 20.9416 24.7154Z" fill="#FF9933"/>
<path d="M58.1926 51.4231C57.9407 51.1712 57.5991 51.0297 57.2428 51.0297C56.8866 51.0297 56.545 51.1712 56.2931 51.4231C56.0412 51.675 55.8997 52.0167 55.8997 52.3729C55.8997 52.7291 56.0412 53.0708 56.2931 53.3227L59.9413 56.9709C60.0657 57.0967 60.2138 57.1965 60.3771 57.2646C60.5403 57.3328 60.7154 57.3678 60.8923 57.3678C61.0692 57.3678 61.2443 57.3328 61.4076 57.2646C61.5708 57.1965 61.7189 57.0967 61.8433 56.9709C61.9681 56.8462 62.0671 56.6982 62.1346 56.5352C62.2022 56.3723 62.237 56.1976 62.237 56.0212C62.237 55.8448 62.2022 55.6701 62.1346 55.5071C62.0671 55.3441 61.9681 55.1961 61.8433 55.0714L58.1926 51.4231Z" fill="#FF9933"/>
<path d="M60.624 19.2746C60.7487 19.1499 60.8477 19.0018 60.9152 18.8389C60.9827 18.6759 61.0174 18.5012 61.0174 18.3249C61.0174 18.1485 60.9827 17.9738 60.9152 17.8109C60.8477 17.6479 60.7487 17.4998 60.624 17.3751C60.4993 17.2504 60.3512 17.1514 60.1882 17.0839C60.0253 17.0164 59.8506 16.9817 59.6742 16.9817C59.4978 16.9817 59.3232 17.0164 59.1602 17.0839C58.9973 17.1514 58.8492 17.2504 58.7245 17.3751L54.8938 21.2058C54.7691 21.3307 54.6702 21.4789 54.6027 21.642C54.5353 21.8051 54.5006 21.9799 54.5007 22.1564C54.5008 22.3329 54.5357 22.5077 54.6034 22.6707C54.671 22.8337 54.7701 22.9818 54.895 23.1065C55.0199 23.2313 55.1681 23.3302 55.3312 23.3976C55.4943 23.465 55.6691 23.4997 55.8456 23.4996C56.0221 23.4995 56.1969 23.4646 56.3599 23.3969C56.5229 23.3293 56.671 23.2302 56.7957 23.1053L60.624 19.2746Z" fill="#FF9933"/>
<path d="M21.0237 52.6393L17.3755 56.2876C17.2507 56.4125 17.1518 56.5607 17.0844 56.7238C17.017 56.8869 16.9823 57.0617 16.9824 57.2382C16.9825 57.4147 17.0174 57.5895 17.0851 57.7525C17.1527 57.9155 17.2518 58.0636 17.3767 58.1883C17.5016 58.3131 17.6498 58.412 17.8129 58.4794C17.976 58.5469 18.1508 58.5815 18.3273 58.5814C18.5038 58.5813 18.6786 58.5464 18.8416 58.4788C19.0046 58.4111 19.1527 58.312 19.2774 58.1871L22.9257 54.5389C23.0504 54.414 23.1493 54.2657 23.2168 54.1026C23.2842 53.9395 23.3189 53.7647 23.3188 53.5882C23.3186 53.4117 23.2838 53.237 23.2161 53.074C23.1485 52.9109 23.0494 52.7628 22.9245 52.6381C22.7996 52.5134 22.6514 52.4145 22.4883 52.347C22.3252 52.2796 22.1504 52.2449 21.9739 52.2451C21.7974 52.2452 21.6226 52.28 21.4596 52.3477C21.2966 52.4153 21.1485 52.5144 21.0237 52.6393Z" fill="#FF9933"/>
<path d="M39.0001 45.4839C40.7319 45.4839 42.3614 44.8102 43.5848 43.5843C44.6403 42.5269 45.2989 41.1379 45.4495 39.6514C45.6001 38.165 45.2336 36.6721 44.4117 35.4244L50.8643 28.9718C51.1082 28.728 51.2451 28.3973 51.2451 28.0524C51.2451 27.7076 51.1082 27.3769 50.8643 27.1331C50.6205 26.8892 50.2898 26.7523 49.945 26.7523C49.6001 26.7523 49.2694 26.8892 49.0256 27.1331L42.5657 33.5929C40.0727 31.9999 36.5509 32.2723 34.4155 34.4102C33.5107 35.3181 32.8949 36.4736 32.6458 37.7309C32.3968 38.9883 32.5255 40.2912 33.0158 41.4755C33.5061 42.6599 34.3361 43.6725 35.4011 44.3858C36.466 45.0991 37.7184 45.4812 39.0001 45.4839ZM36.709 36.7061C37.3195 36.0932 38.1343 35.7551 39.0001 35.7551C39.866 35.7551 40.6808 36.0932 41.2937 36.7061C42.5584 37.9709 42.5584 40.0261 41.2937 41.2908C40.0703 42.5166 37.9349 42.5166 36.709 41.2908C36.1017 40.6825 35.7606 39.858 35.7606 38.9985C35.7606 38.1389 36.1017 37.3144 36.709 36.7061Z" fill="#FF9933"/>
</svg>
