<svg width="21" height="21" viewBox="0 0 21 21" fill="none" xmlns="http://www.w3.org/2000/svg">
<path d="M7.90917 19.1364C8.38614 19.1364 8.7728 18.7497 8.7728 18.2728C8.7728 17.7958 8.38614 17.4091 7.90917 17.4091C7.4322 17.4091 7.04553 17.7958 7.04553 18.2728C7.04553 18.7497 7.4322 19.1364 7.90917 19.1364Z" stroke="#C9C9C9" stroke-width="2" stroke-linecap="round" stroke-linejoin="round"/>
<path d="M17.4092 19.1364C17.8861 19.1364 18.2728 18.7497 18.2728 18.2728C18.2728 17.7958 17.8861 17.4091 17.4092 17.4091C16.9322 17.4091 16.5455 17.7958 16.5455 18.2728C16.5455 18.7497 16.9322 19.1364 17.4092 19.1364Z" stroke="#C9C9C9" stroke-width="2" stroke-linecap="round" stroke-linejoin="round"/>
<path d="M1 1H4.45455L6.76909 12.5641C6.84807 12.9617 7.06438 13.3189 7.38015 13.5731C7.69593 13.8273 8.09106 13.9623 8.49636 13.9545H16.8909C17.2962 13.9623 17.6913 13.8273 18.0071 13.5731C18.3229 13.3189 18.5392 12.9617 18.6182 12.5641L20 5.31818H5.31818" stroke="#C9C9C9" stroke-width="2" stroke-linecap="round" stroke-linejoin="round"/>
</svg>
