<svg width="45" height="45" viewBox="0 0 45 45" fill="none" xmlns="http://www.w3.org/2000/svg">
<path d="M27.0456 40.8237C26.6745 40.9162 26.2962 40.9983 25.9207 41.0675C24.939 41.25 24.29 42.1941 24.4716 43.1766C24.5613 43.66 24.8358 44.0626 25.2085 44.3254C25.5927 44.5958 26.0815 44.7179 26.5797 44.6252C27.0269 44.5422 27.4776 44.4446 27.9198 44.3342C28.8892 44.093 29.4798 43.111 29.2379 42.1421C28.9967 41.1723 28.0155 40.5823 27.0456 40.8237Z" fill="#C9C9C9"/>
<path d="M40.4232 16.5761C40.5499 16.958 40.7918 17.2697 41.0974 17.4852C41.5505 17.8043 42.1434 17.9117 42.7092 17.7246C43.6578 17.4096 44.1717 16.3868 43.8579 15.4387C43.7149 15.0065 43.5563 14.5729 43.3873 14.1508C43.0162 13.2231 41.964 12.7715 41.0358 13.1425C40.1086 13.5134 39.6568 14.566 40.0281 15.4939C40.1701 15.8487 40.3032 16.2129 40.4232 16.5761Z" fill="#C9C9C9"/>
<path d="M32.9239 38.2409C32.6047 38.4516 32.2754 38.6555 31.9436 38.8465C31.0779 39.3459 30.7814 40.4524 31.2806 41.3177C31.4161 41.553 31.5966 41.7454 31.8045 41.8925C32.3625 42.2851 33.1204 42.3439 33.7514 41.9804C34.1459 41.7529 34.5381 41.5108 34.9182 41.2595C35.7515 40.709 35.9808 39.5866 35.43 38.753C34.8793 37.9191 33.7574 37.69 32.9239 38.2409Z" fill="#C9C9C9"/>
<path d="M44.9828 21.6286C44.9435 20.6301 44.1025 19.853 43.1037 19.8919C42.1062 19.9313 41.3285 20.7726 41.3676 21.7707C41.3826 22.1523 41.3865 22.5396 41.3777 22.9208C41.3637 23.547 41.6699 24.1051 42.1458 24.4406C42.4294 24.6403 42.7734 24.7611 43.1465 24.7696C44.145 24.7917 44.9725 23.9998 44.9946 23.0008C45.0046 22.5453 45.0008 22.0838 44.9828 21.6286Z" fill="#C9C9C9"/>
<path d="M40.1281 33.4819C39.3274 32.8812 38.1947 33.0443 37.595 33.8435C37.3654 34.1495 37.1235 34.4518 36.8759 34.7429C36.2288 35.5032 36.3202 36.6452 37.0805 37.2929C37.1238 37.3296 37.1677 37.3634 37.2131 37.3951C37.969 37.928 39.0195 37.8056 39.6307 37.0884C39.9264 36.7411 40.2146 36.38 40.4891 36.0145C41.0888 35.2152 40.9265 34.0817 40.1281 33.4819Z" fill="#C9C9C9"/>
<path d="M42.7873 26.9425C41.834 26.6436 40.8188 27.1743 40.5201 28.1276C40.4057 28.4918 40.279 28.8577 40.1422 29.2161C39.8419 30.005 40.1297 30.8731 40.7894 31.3383C40.9104 31.4233 41.0437 31.4954 41.1885 31.5502C42.1219 31.9063 43.1671 31.438 43.5229 30.5043C43.6853 30.0782 43.836 29.6428 43.9723 29.2098C44.2707 28.2563 43.7404 27.2414 42.7873 26.9425Z" fill="#C9C9C9"/>
<path d="M19.1529 41.0838C17.5356 40.7934 15.9841 40.2989 14.5129 39.6092C14.4955 39.6001 14.4799 39.5897 14.4616 39.5814C14.1149 39.4182 13.7688 39.2434 13.4333 39.0608C13.4322 39.0594 13.43 39.0586 13.4282 39.0578C12.8127 38.7188 12.212 38.3438 11.6284 37.933C3.11863 31.9385 1.07254 20.1382 7.06745 11.6286C8.37102 9.77884 9.94853 8.23566 11.7072 7.01257C11.7289 6.99748 11.7506 6.98249 11.772 6.9673C17.9694 2.69713 26.3845 2.40935 32.9651 6.79734L31.5518 8.83947C31.1588 9.40787 31.4006 9.82208 32.0884 9.76017L38.2278 9.21053C38.9165 9.14863 39.3284 8.55285 39.1431 7.88771L37.4945 1.94775C37.31 1.28184 36.8374 1.20213 36.4441 1.77043L35.0275 3.8174C30.1982 0.575593 24.4059 -0.660555 18.6568 0.336372C18.0778 0.436588 17.5068 0.559245 16.9438 0.702022C16.9394 0.702796 16.9359 0.70328 16.9324 0.704053C16.9107 0.709374 16.8886 0.716435 16.8674 0.722336C11.9099 1.99544 7.58448 4.88687 4.49803 9.01233C4.47201 9.04319 4.44522 9.07337 4.42065 9.10693C4.31801 9.24516 4.21616 9.38659 4.11642 9.52801C3.95333 9.75978 3.79256 9.99736 3.63876 10.2349C3.61951 10.2636 3.6048 10.2927 3.58797 10.3216C1.041 14.2684 -0.187505 18.8313 0.0231792 23.4766C0.0236628 23.4919 0.0227922 23.5072 0.0231792 23.5229C0.0435898 23.9767 0.0795743 24.4367 0.128424 24.8896C0.131036 24.9189 0.137517 24.9465 0.142451 24.9757C0.192945 25.4312 0.256305 25.8876 0.335723 26.344C1.14286 31.0005 3.33947 35.1907 6.63099 38.4511C6.63863 38.4587 6.64656 38.4671 6.6543 38.475C6.65701 38.478 6.66001 38.4795 6.66262 38.4823C7.54695 39.3546 8.50886 40.1613 9.54458 40.8908C12.255 42.8007 15.2732 44.0631 18.5145 44.6448C19.498 44.8215 20.4375 44.1668 20.6139 43.1838C20.7902 42.2002 20.1361 41.2599 19.1529 41.0838Z" fill="#C9C9C9"/>
<path d="M21.3899 7.88474C20.5809 7.88474 19.9257 8.54058 19.9257 9.3484V23.9306L33.2622 30.8248C33.4768 30.9359 33.7067 30.9883 33.9328 30.9883C34.4626 30.9883 34.9742 30.6998 35.2343 30.1965C35.6053 29.4782 35.3245 28.5957 34.6062 28.2247L22.8525 22.1482V9.3484C22.8524 8.54058 22.1979 7.88474 21.3899 7.88474Z" fill="#C9C9C9"/>
</svg>
