<svg width="286" height="44" viewBox="0 0 286 44" fill="none" xmlns="http://www.w3.org/2000/svg">
<path fill-rule="evenodd" clip-rule="evenodd" d="M0.435395 39.8781V41.4431L5.515 42.8281L7.51056 42.918L8.52648 43.1698L53.4991 41.1553V39.4464L52.4288 38.8349V35.813L52.7009 34.8057L52.3744 15.4153L53.608 14.8037V12.6272L53.2996 12.3034L47.4218 11.494V10.4327L52.4832 8.52607L52.5195 7.68066L45.1178 6.9072L44.628 6.96116L43.5032 7.41085L42.0156 7.44683L41.1267 7.53676L40.2559 7.98645L39.9112 7.66267L39.4395 7.55475L38.9678 7.64469L38.7683 7.7706L34.2692 2.73412L33.9427 2.69815L27.0126 5.72003L25.271 5.61211L29.0263 1.72682L28.8449 1.42104L27.3392 1.96066L23.3299 4.73072L23.1122 4.85664H22.6768L22.1507 4.94657L21.6065 5.10846L21.0804 5.07249V4.31701L19.0122 3.65148L18.3229 3.41764L18.1777 3.29173L18.9034 2.68016L18.3229 2.12255L8.58091 0.557642L8.10923 0.521667L7.78268 0.629592L4.2451 4.335L4.28138 4.98255L4.4628 5.21638L5.58757 5.18041L6.45836 5.55815L6.42207 5.97186L3.68271 5.61211L2.2314 7.41085V9.13764L1.45132 9.96507V12.5912L0 14.2461V16.2427L0.798224 16.5664L0.580526 16.9802L0.562385 17.1241L1.14291 17.5917C1.14291 17.5917 1.08849 39.3385 1.14291 39.3385C1.19734 39.3385 0.435395 39.8781 0.435395 39.8781Z" fill="#000001"/>
<path fill-rule="evenodd" clip-rule="evenodd" d="M0.888839 39.3385V40.9034L5.96845 42.2884L7.96401 42.3784L8.96179 42.6482L53.9345 40.6336V38.9248L52.8641 38.3132V35.2913L53.1362 34.284L52.8097 14.8756L54.0433 14.264V12.0875L53.7349 11.7638L47.8571 10.9543V9.91107L52.9185 8.0044L52.9548 7.15899L45.5531 6.40352L45.0633 6.4395L43.9385 6.88918L42.4509 6.92516L41.562 7.01509L40.6912 7.46478L40.3465 7.14101L39.8748 7.01509L39.4031 7.10503L39.1855 7.23094L34.6864 2.19447L34.378 2.17648L27.4479 5.19837L25.7063 5.09044L29.4798 1.20516L29.2984 0.899371L27.7563 1.43899L23.7471 4.20906L23.5475 4.31698H23.1121L22.586 4.40692L22.0418 4.56881L21.5157 4.53283V3.79535L19.4475 3.12981L18.7582 2.89597L18.613 2.77006L19.3387 2.15849L18.7582 1.58289L9.03435 0.0359748L8.54453 0L8.21799 0.107925L4.6804 3.79535L4.71669 4.44289L4.8981 4.67673L6.02287 4.64075L6.89366 5.01849L6.85738 5.45019L4.11802 5.09044L2.68484 6.87119V8.59799L1.88662 9.4434V12.0696L0.435303 13.7244V15.721L1.23353 16.0448L1.01583 16.4585L0.997688 16.5844L1.57821 17.0521C1.57821 17.0521 1.52379 38.7989 1.57821 38.7989C1.63264 38.7989 0.888839 39.3385 0.888839 39.3385Z" fill="#A4A8AC"/>
<path fill-rule="evenodd" clip-rule="evenodd" d="M65.8899 23.336H71.8947L73.0921 21.3214H78.2624L78.2442 23.336H83.5415L83.6141 10.0073H73.9628L65.8899 23.336ZM74.5252 18.4434L78.4801 12.0039L78.4075 18.4434H74.5252ZM85.4282 23.336H90.8707L91.8503 19.6845C91.9229 19.4327 91.9954 19.1629 92.0499 18.9111C92.1043 18.6233 92.1587 18.3535 92.2131 18.0657L92.4127 16.8605L92.7574 18.0477C92.8844 18.4614 93.0295 18.8571 93.1746 19.2708C93.2109 19.3608 93.2472 19.4507 93.2653 19.5406L94.6985 23.354H100.631L97.8733 17.0764L104.422 10.0253H97.8188L94.6078 13.9825C94.5715 14.0365 94.5171 14.0904 94.4808 14.1444C94.0999 14.5941 93.7552 15.0438 93.4286 15.5294L93.2835 15.7453L92.8299 15.5294L92.9207 15.2956C93.0477 14.9718 93.1565 14.6301 93.2472 14.2883C93.3561 13.9465 93.4468 13.6228 93.5375 13.281L94.3901 10.0433H89.0565L85.4282 23.336ZM105.783 10.0073H111.189L108.94 18.2815C108.885 18.4614 108.849 18.6413 108.813 18.8211C108.794 18.9471 108.758 19.091 108.758 19.2349C108.758 19.5946 108.867 19.9364 109.139 20.1882C109.429 20.44 109.828 20.494 110.191 20.494C110.717 20.494 111.207 20.3501 111.606 19.9903C112.024 19.6126 112.241 19.037 112.386 18.4974L114.69 9.98931H120.133L117.829 18.3894C117.611 19.1989 117.321 20.2961 116.922 21.0336C116.686 21.4833 116.378 21.897 115.978 22.2208C115.253 22.7964 114.346 23.1201 113.457 23.336C112.187 23.6418 110.79 23.7137 109.484 23.7137C108.014 23.7137 105.819 23.6238 104.477 22.9582C103.533 22.4906 103.044 21.7531 103.044 20.7098C103.044 20.404 103.08 20.0982 103.134 19.7925C103.225 19.3248 103.352 18.8571 103.479 18.4074L105.783 10.0073ZM130.746 10.0073H123.362L119.734 23.336H124.886L126.301 18.1376C126.41 17.7419 126.519 17.3282 126.609 16.9325C126.718 16.4648 126.827 15.9791 126.918 15.4935L126.972 15.2596L127.462 15.2956L127.48 15.5474C127.516 16.123 127.553 16.6986 127.589 17.2742C127.607 17.562 127.643 17.8498 127.662 18.1376L128.151 23.336H131L134.664 17.7059C135.027 17.1663 135.354 16.5907 135.698 16.0331L136.134 15.3136L136.587 15.5115L136.515 15.7453C136.333 16.3029 136.17 16.8605 135.988 17.4181C135.934 17.598 135.88 17.7779 135.825 17.9577L134.374 23.318H139.508L143.136 9.98931H135.589L132.306 15.5834C132.124 15.9072 131.925 16.231 131.762 16.5547C131.635 16.7886 131.526 17.0224 131.417 17.2742L130.746 18.7312L130.873 17.1303C130.891 16.9145 130.891 16.6986 130.909 16.4828C130.909 16.2849 130.927 16.0691 130.927 15.8712C130.927 15.6554 130.927 15.4575 130.927 15.2416C130.927 15.0977 130.927 14.9538 130.909 14.8279L130.746 10.0073ZM146.329 10.0073L144.025 18.4074C143.898 18.8571 143.771 19.3428 143.68 19.7925C143.626 20.0982 143.59 20.404 143.59 20.7098C143.59 21.7711 144.061 22.4906 145.023 22.9582C146.365 23.6238 148.56 23.7137 150.03 23.7137C151.336 23.7137 152.733 23.6418 154.003 23.336C154.892 23.1201 155.799 22.7964 156.525 22.2208C156.924 21.897 157.232 21.4833 157.468 21.0336C157.867 20.2961 158.157 19.1989 158.375 18.3894L160.679 9.98931H155.237L152.933 18.4974C152.787 19.019 152.57 19.6126 152.153 19.9903C151.753 20.3501 151.264 20.494 150.737 20.494C150.375 20.494 149.976 20.422 149.685 20.1882C149.395 19.9543 149.304 19.5946 149.304 19.2349C149.304 19.091 149.322 18.965 149.359 18.8211C149.395 18.6413 149.449 18.4614 149.486 18.2815L151.753 10.0073H146.329ZM160.244 23.336L163.872 10.0073H169.332L166.883 19.001H172.652L171.473 23.318H160.244V23.336ZM173.305 23.336H179.31L180.508 21.3214H185.678L185.66 23.336H190.957L191.03 10.0073H181.378L173.305 23.336ZM181.941 18.4434L185.896 12.0039L185.823 18.4434H181.941ZM206.287 14.0185L207.375 10.0253H194.368L193.279 14.0185H197.161L194.622 23.336H200.1L202.622 14.0185H206.287ZM206.867 19.4867C206.867 19.1629 206.885 18.8391 206.922 18.5154C206.958 18.1556 207.012 17.7959 207.085 17.4361C207.266 16.4828 207.52 15.5474 207.865 14.6301C208.119 13.9465 208.427 13.2271 208.863 12.6335C209.298 12.0039 209.824 11.4103 210.441 10.9247C210.985 10.5109 211.584 10.2052 212.255 10.0253C212.908 9.84541 213.579 9.73749 214.251 9.66554C215.067 9.5756 215.883 9.55762 216.7 9.55762C217.806 9.55762 218.986 9.61158 220.074 9.80944C220.872 9.97133 221.652 10.2052 222.36 10.6189C222.868 10.9067 223.213 11.3204 223.448 11.86C223.739 12.5255 223.811 13.317 223.811 14.0365C223.811 14.5761 223.775 15.1157 223.684 15.6374C223.594 16.213 223.467 16.7886 223.303 17.3642C223.067 18.2276 222.759 19.073 222.36 19.8644C221.997 20.5659 221.562 21.2315 221.036 21.825C220.364 22.5625 219.457 23.0302 218.496 23.3C217.099 23.6957 215.394 23.7677 213.942 23.7677C212.328 23.7677 209.806 23.6598 208.391 22.7784C207.23 22.0409 206.867 20.7998 206.867 19.4867ZM215.793 20.1522C216.137 20.0083 216.428 19.8104 216.664 19.5227C216.863 19.2888 217.026 19.037 217.153 18.7672C217.317 18.4434 217.444 18.0837 217.552 17.7419C217.679 17.3462 217.788 16.9325 217.879 16.5188C217.952 16.213 217.988 15.8712 217.988 15.5654C217.988 15.0438 217.825 14.5941 217.389 14.2703C216.936 13.9465 216.301 13.8566 215.756 13.8566C215.303 13.8566 214.849 13.9286 214.45 14.1444C214.051 14.3423 213.743 14.6301 213.507 14.9898C213.144 15.5474 212.89 16.213 212.691 16.8605C212.509 17.4901 212.346 18.1736 212.346 18.8391C212.346 19.3248 212.564 19.7205 212.981 19.9903C213.452 20.2781 214.069 20.3501 214.595 20.3501C215.031 20.3681 215.412 20.3141 215.793 20.1522ZM224.301 23.336H229.743L230.524 20.458C230.651 19.9723 230.759 19.4867 230.868 19.001L231.104 17.9218L231.449 18.7132C231.576 19.019 231.721 19.3248 231.866 19.6126C231.975 19.8464 232.102 20.0623 232.229 20.2781L234.007 23.336H240.429L236.42 17.562H237.272C238.542 17.562 239.885 17.3102 240.828 16.3928C241.771 15.4755 242.007 14.1084 242.007 12.8493C242.007 12.0938 241.862 11.2484 241.281 10.6908C240.683 10.1332 239.758 10.0073 238.977 10.0073H227.929L224.301 23.336ZM231.485 16.8605L232.428 13.4249H235.005C235.404 13.4249 235.857 13.4789 236.184 13.7307C236.51 13.9645 236.619 14.3423 236.619 14.738C236.619 15.3676 236.438 15.9791 235.912 16.3749C235.349 16.7886 234.515 16.8785 233.825 16.8785H231.485V16.8605ZM241.935 22.4366C241.935 21.7531 242.098 21.0876 242.66 20.6738C243.313 20.1882 244.366 20.0982 245.146 20.0982C245.617 20.0982 246.379 20.1342 246.796 20.3681C247.105 20.5479 247.196 20.8357 247.196 21.1595C247.196 21.843 247.032 22.5445 246.47 22.9942C245.817 23.4979 244.765 23.5878 243.966 23.5878C243.513 23.5878 242.733 23.5518 242.334 23.3C242.025 23.1201 241.935 22.7784 241.935 22.4366ZM252.874 10.0073L249.246 23.336H260.13C261.146 23.336 262.489 23.3 263.468 23.0122C264.14 22.8144 264.72 22.4546 265.174 21.933C265.482 21.5732 265.7 21.1595 265.845 20.7278C266.008 20.2242 266.099 19.7205 266.099 19.1989C266.099 18.6053 265.954 17.9937 265.464 17.616C264.902 17.1663 263.922 17.0584 263.214 17.0224L262.942 17.0044V16.4648L263.214 16.4468C264.339 16.4108 265.591 16.159 266.426 15.3496C267.242 14.5581 267.478 13.4609 267.478 12.3637C267.478 11.7341 267.369 10.9606 266.843 10.5469C266.262 10.0793 265.01 10.0253 264.285 10.0253H252.874V10.0073ZM256.611 15.9432L257.3 13.299H259.985C260.348 13.299 260.929 13.317 261.237 13.5149C261.545 13.7127 261.636 14.0365 261.636 14.3782C261.636 14.8819 261.437 15.2956 261.019 15.5654C260.566 15.8712 259.949 15.9252 259.405 15.9252H256.611V15.9432ZM255.341 20.6019L256.103 17.7419H258.988C259.35 17.7419 259.822 17.7779 260.149 17.9757C260.457 18.1736 260.584 18.4794 260.584 18.8391C260.584 19.3608 260.384 19.8105 259.967 20.1522C259.514 20.512 258.951 20.6199 258.389 20.6199H255.341V20.6019ZM269.056 23.336H275.46L285.129 10.0073H279.106L276.385 14.3423C276.222 14.5941 276.077 14.8639 275.95 15.1337C275.787 15.4935 275.641 15.8532 275.496 16.213L274.952 17.6879V16.123C274.952 15.8172 274.934 15.5294 274.916 15.2237C274.898 14.8819 274.861 14.5581 274.807 14.2164L274.19 10.0073H268.439L271.106 20.422L269.056 23.336Z" fill="#000001"/>
<path fill-rule="evenodd" clip-rule="evenodd" d="M66.7605 22.7784H72.7653L73.9627 20.7638H79.133L79.1148 22.7784H84.4121L84.4847 9.44969H74.8334L66.7605 22.7784ZM75.3958 17.8858L79.3507 11.4463L79.2781 17.8858H75.3958ZM86.2988 22.7784H91.7413L92.7209 19.1269C92.7935 18.8751 92.8661 18.6053 92.9205 18.3535C92.9749 18.0657 93.0293 17.7958 93.0838 17.5081L93.2833 16.3029L93.628 17.4901C93.755 17.9038 93.9001 18.2995 94.0452 18.7132C94.0815 18.8031 94.1178 18.8931 94.136 18.983L95.5691 22.7964H101.501L98.7439 16.5187L105.293 9.46767H98.6895L95.4784 13.4249C95.4421 13.4789 95.3877 13.5328 95.3514 13.5868C94.9705 14.0365 94.6258 14.4862 94.2992 14.9718L94.1541 15.1877L93.7006 14.9718L93.7913 14.738C93.9183 14.4142 94.0271 14.0725 94.1178 13.7307C94.2267 13.3889 94.3174 13.0652 94.4081 12.7234L95.2607 9.48566H89.9271L86.2988 22.7784ZM106.672 9.46767H112.078L109.828 17.7419C109.774 17.9218 109.738 18.1016 109.701 18.2815C109.683 18.4074 109.647 18.5513 109.647 18.6952C109.647 19.055 109.756 19.3967 110.028 19.6486C110.318 19.9004 110.717 19.9543 111.08 19.9543C111.606 19.9543 112.096 19.8104 112.495 19.4507C112.912 19.073 113.13 18.4974 113.275 17.9577L115.579 9.44969H121.022L118.718 17.8498C118.5 18.6592 118.21 19.7565 117.811 20.494C117.575 20.9436 117.266 21.3574 116.867 21.6811C116.142 22.2567 115.234 22.5805 114.346 22.7964C113.076 23.1021 111.679 23.1741 110.373 23.1741C108.903 23.1741 106.708 23.0842 105.366 22.4186C104.422 21.9509 103.932 21.2135 103.932 20.1702C103.932 19.8644 103.969 19.5586 104.023 19.2528C104.096 18.7852 104.241 18.3175 104.368 17.8678L106.672 9.46767ZM131.634 9.46767H124.251L120.622 22.7964H125.775L127.19 17.598C127.299 17.2023 127.407 16.7886 127.498 16.3928C127.607 15.9252 127.716 15.4395 127.806 14.9538L127.861 14.72L128.351 14.756L128.369 15.0078C128.405 15.5834 128.441 16.159 128.478 16.7346C128.496 17.0224 128.532 17.3102 128.55 17.598L129.04 22.7964H131.888L135.553 17.1663C135.916 16.6267 136.242 16.0511 136.587 15.4935L137.022 14.774L137.476 14.9718L137.403 15.2057C137.222 15.7633 137.059 16.3209 136.877 16.8785C136.823 17.0584 136.768 17.2382 136.714 17.4181L135.263 22.7784H140.397L144.025 9.44969H136.478L133.195 15.0438C133.013 15.3675 132.814 15.6913 132.65 16.0151C132.523 16.2489 132.414 16.4828 132.306 16.7346L131.634 18.1916L131.761 16.5907C131.779 16.3748 131.779 16.159 131.798 15.9431C131.798 15.7453 131.816 15.5294 131.816 15.3316C131.816 15.1157 131.816 14.9179 131.816 14.702C131.816 14.5581 131.816 14.4142 131.798 14.2883L131.634 9.46767ZM147.2 9.46767L144.896 17.8678C144.769 18.3175 144.642 18.8031 144.551 19.2528C144.497 19.5586 144.46 19.8644 144.46 20.1702C144.46 21.2314 144.932 21.9509 145.894 22.4186C147.236 23.0842 149.431 23.1741 150.901 23.1741C152.207 23.1741 153.604 23.1021 154.874 22.7964C155.762 22.5805 156.67 22.2567 157.395 21.6811C157.794 21.3574 158.103 20.9436 158.339 20.494C158.738 19.7565 159.028 18.6592 159.246 17.8498L161.55 9.44969H156.107L153.803 17.9577C153.658 18.4794 153.422 19.073 153.023 19.4507C152.624 19.8104 152.134 19.9543 151.608 19.9543C151.245 19.9543 150.846 19.8824 150.556 19.6486C150.266 19.4147 150.175 19.055 150.175 18.6952C150.175 18.5513 150.193 18.4254 150.229 18.2815C150.266 18.1016 150.32 17.9218 150.356 17.7419L152.624 9.46767H147.2ZM161.132 22.7784L164.761 9.44969H170.221L167.772 18.4434H173.541L172.362 22.7604H161.132V22.7784ZM174.176 22.7784H180.181L181.378 20.7638H186.549L186.53 22.7784H191.828L191.9 9.44969H182.249L174.176 22.7784ZM182.811 17.8858L186.766 11.4463L186.694 17.8858H182.811ZM207.175 13.4609L208.264 9.44969H195.256L194.168 13.4609H198.05L195.51 22.7784H200.989L203.511 13.4609H207.175ZM207.738 18.9291C207.738 18.6053 207.756 18.2815 207.792 17.9577C207.828 17.598 207.883 17.2382 207.955 16.8785C208.137 15.9252 208.391 14.9898 208.736 14.0725C208.99 13.3889 209.298 12.6694 209.715 12.0758C210.151 11.4463 210.677 10.8527 211.293 10.367C211.838 9.95333 212.436 9.64755 213.108 9.46767C213.761 9.2878 214.432 9.17987 215.103 9.10793C215.92 9.01799 216.736 9 217.552 9C218.659 9 219.838 9.05396 220.927 9.25182C221.725 9.41371 222.505 9.64755 223.212 10.0613C223.72 10.3491 224.065 10.7628 224.301 11.3024C224.591 11.9679 224.664 12.7594 224.664 13.4789C224.664 14.0185 224.627 14.5581 224.537 15.0797C224.446 15.6553 224.319 16.2309 224.156 16.8065C223.92 17.6699 223.612 18.5153 223.212 19.3068C222.85 20.0083 222.414 20.6738 221.888 21.2674C221.217 22.0049 220.31 22.4726 219.348 22.7424C217.951 23.1381 216.246 23.2101 214.795 23.2101C213.18 23.2101 210.659 23.1021 209.243 22.2208C208.101 21.4833 207.738 20.2421 207.738 18.9291ZM216.663 19.6126C217.008 19.4687 217.298 19.2708 217.534 18.983C217.734 18.7492 217.897 18.4974 218.024 18.2275C218.187 17.9038 218.314 17.544 218.423 17.2023C218.55 16.8065 218.659 16.3928 218.75 15.9791C218.822 15.6733 218.858 15.3316 218.858 15.0258C218.858 14.5042 218.677 14.0545 218.26 13.7307C217.806 13.4069 217.171 13.317 216.627 13.317C216.174 13.317 215.72 13.4069 215.321 13.6048C214.922 13.8026 214.613 14.0904 214.378 14.4502C214.015 15.0078 213.761 15.6733 213.561 16.3209C213.38 16.9504 213.216 17.634 213.216 18.2995C213.216 18.7852 213.434 19.1809 213.851 19.4507C214.323 19.7385 214.94 19.8104 215.466 19.8104C215.901 19.8104 216.301 19.7565 216.663 19.6126ZM225.19 22.7784H230.632L231.412 19.9004C231.539 19.4147 231.648 18.9291 231.757 18.4434L231.993 17.3642L232.338 18.1556C232.465 18.4614 232.61 18.7672 232.755 19.055C232.864 19.2888 232.991 19.5047 233.118 19.7205L234.895 22.7784H241.318L237.308 17.0044H238.161C239.431 17.0044 240.773 16.7526 241.717 15.8352C242.642 14.9179 242.896 13.5508 242.896 12.2917C242.896 11.5362 242.751 10.6908 242.17 10.1332C241.572 9.5756 240.646 9.44969 239.866 9.44969H228.818L225.19 22.7784ZM232.356 16.3029L233.299 12.8673H235.875C236.274 12.8673 236.728 12.9213 237.054 13.1731C237.381 13.4069 237.49 13.7847 237.49 14.1804C237.49 14.8099 237.308 15.4215 236.782 15.8172C236.22 16.2309 235.385 16.3209 234.696 16.3209H232.356V16.3029ZM242.823 21.879C242.823 21.1955 242.987 20.5299 243.549 20.1162C244.202 19.6306 245.254 19.5406 246.034 19.5406C246.506 19.5406 247.268 19.5766 247.685 19.8104C247.994 19.9903 248.084 20.2781 248.084 20.6019C248.084 21.2854 247.921 21.9869 247.359 22.4366C246.706 22.9403 245.653 23.0302 244.855 23.0302C244.402 23.0302 243.622 22.9942 243.222 22.7424C242.896 22.5625 242.823 22.2208 242.823 21.879ZM253.763 9.46767L250.134 22.7964H261.019C262.035 22.7964 263.378 22.7604 264.357 22.4726C265.028 22.2747 265.609 21.915 266.063 21.3933C266.371 21.0336 266.589 20.6199 266.734 20.1882C266.897 19.6845 266.988 19.1809 266.988 18.6592C266.988 18.0657 266.843 17.4541 266.353 17.0764C265.79 16.6267 264.811 16.5187 264.103 16.4828L263.831 16.4648V15.9252L264.103 15.9072C265.228 15.8712 266.48 15.6194 267.314 14.8099C268.131 14.0185 268.366 12.9213 268.366 11.824C268.366 11.1945 268.258 10.421 267.732 10.0073C267.151 9.53962 265.899 9.48566 265.174 9.48566H253.763V9.46767ZM257.482 15.3855L258.171 12.7414H260.856C261.219 12.7414 261.799 12.7594 262.108 12.9572C262.416 13.1551 262.507 13.4789 262.507 13.8206C262.507 14.3243 262.325 14.738 261.89 15.0078C261.436 15.3136 260.82 15.3675 260.275 15.3675H257.482V15.3855ZM256.212 20.0623L256.974 17.2023H259.858C260.221 17.2023 260.693 17.2382 261.019 17.4361C261.328 17.634 261.455 17.9397 261.455 18.2995C261.455 18.8211 261.255 19.2708 260.838 19.6126C260.384 19.9723 259.822 20.0803 259.259 20.0803H256.212V20.0623ZM269.927 22.7784H276.331L286 9.44969H279.977L277.256 13.7847C277.093 14.0365 276.947 14.3063 276.82 14.5761C276.657 14.9358 276.512 15.2956 276.367 15.6553L275.823 17.1303V15.5654C275.823 15.2596 275.804 14.9718 275.786 14.666C275.768 14.3243 275.732 14.0005 275.678 13.6587L275.061 9.44969H269.31L271.977 19.8644L269.927 22.7784Z" fill="#ACABAD"/>
<path d="M65.6409 38.5786L68.115 32.1362H69.0334L71.6702 38.5786H70.699L69.9475 36.6274H67.2537L66.5461 38.5786H65.6409ZM67.4998 35.9331H69.6838L69.0115 34.1489C68.8064 33.6069 68.6541 33.1616 68.5544 32.813C68.4724 33.2261 68.3567 33.6362 68.2073 34.0435L67.4998 35.9331ZM72.5862 38.5786V32.1362H75.0032C75.4953 32.1362 75.8894 32.2021 76.1853 32.334C76.4841 32.4629 76.717 32.6636 76.884 32.936C77.0539 33.2056 77.1389 33.4883 77.1389 33.7842C77.1389 34.0596 77.0642 34.3188 76.9148 34.562C76.7654 34.8052 76.5398 35.0015 76.238 35.1509C76.6277 35.2651 76.9265 35.46 77.1345 35.7354C77.3454 36.0107 77.4509 36.3359 77.4509 36.7109C77.4509 37.0127 77.3865 37.2939 77.2575 37.5547C77.1316 37.8125 76.9748 38.0117 76.7873 38.1523C76.5998 38.293 76.364 38.3999 76.0798 38.4731C75.7986 38.5435 75.4529 38.5786 75.0427 38.5786H72.5862ZM73.4387 34.8433H74.8318C75.2097 34.8433 75.4807 34.8184 75.6448 34.7686C75.8616 34.7041 76.0242 34.5972 76.1325 34.4478C76.2439 34.2983 76.2995 34.1108 76.2995 33.8853C76.2995 33.6714 76.2483 33.4839 76.1457 33.3228C76.0432 33.1587 75.8967 33.0474 75.7063 32.9888C75.5158 32.9272 75.1892 32.8965 74.7263 32.8965H73.4387V34.8433ZM73.4387 37.8184H75.0427C75.3181 37.8184 75.5115 37.8081 75.6228 37.7876C75.8191 37.7524 75.9831 37.6938 76.115 37.6118C76.2468 37.5298 76.3552 37.4111 76.4402 37.2559C76.5251 37.0977 76.5676 36.916 76.5676 36.7109C76.5676 36.4707 76.5061 36.2627 76.383 36.0869C76.26 35.9082 76.0886 35.7837 75.8689 35.7134C75.6521 35.6401 75.3386 35.6035 74.9284 35.6035H73.4387V37.8184ZM79.927 38.5786V32.8965H77.8044V32.1362H82.9108V32.8965H80.7795V38.5786H79.927ZM83.3962 35.4409C83.3962 34.3716 83.6833 33.5352 84.2575 32.9316C84.8317 32.3252 85.5729 32.022 86.4811 32.022C87.0759 32.022 87.612 32.1641 88.0895 32.4482C88.5671 32.7324 88.9304 33.1294 89.1794 33.6392C89.4313 34.146 89.5573 34.7217 89.5573 35.3662C89.5573 36.0195 89.4255 36.604 89.1618 37.1196C88.8981 37.6353 88.5246 38.0264 88.0412 38.293C87.5578 38.5566 87.0363 38.6885 86.4767 38.6885C85.8703 38.6885 85.3283 38.542 84.8508 38.249C84.3732 37.9561 84.0114 37.5562 83.7653 37.0493C83.5192 36.5425 83.3962 36.0063 83.3962 35.4409ZM84.2751 35.4541C84.2751 36.2305 84.4831 36.8428 84.8991 37.291C85.3181 37.7363 85.8425 37.959 86.4724 37.959C87.114 37.959 87.6413 37.7334 88.0544 37.2822C88.4704 36.8311 88.6784 36.1909 88.6784 35.3618C88.6784 34.8374 88.5891 34.3804 88.4103 33.9907C88.2346 33.5981 87.9753 33.2949 87.6325 33.0811C87.2927 32.8643 86.9103 32.7559 86.4855 32.7559C85.882 32.7559 85.362 32.9639 84.9255 33.3799C84.4919 33.793 84.2751 34.4844 84.2751 35.4541ZM90.904 38.5786V32.1362H92.1872L93.7121 36.6978C93.8527 37.1226 93.9552 37.4404 94.0197 37.6514C94.0929 37.417 94.2072 37.0728 94.3625 36.6187L95.905 32.1362H97.0519V38.5786H96.2301V33.1865L94.3581 38.5786H93.589L91.7258 33.0942V38.5786H90.904ZM98.4381 35.4409C98.4381 34.3716 98.7252 33.5352 99.2995 32.9316C99.8737 32.3252 100.615 32.022 101.523 32.022C102.118 32.022 102.654 32.1641 103.131 32.4482C103.609 32.7324 103.972 33.1294 104.221 33.6392C104.473 34.146 104.599 34.7217 104.599 35.3662C104.599 36.0195 104.467 36.604 104.204 37.1196C103.94 37.6353 103.567 38.0264 103.083 38.293C102.6 38.5566 102.078 38.6885 101.519 38.6885C100.912 38.6885 100.37 38.542 99.8927 38.249C99.4152 37.9561 99.0534 37.5562 98.8073 37.0493C98.5612 36.5425 98.4381 36.0063 98.4381 35.4409ZM99.317 35.4541C99.317 36.2305 99.525 36.8428 99.9411 37.291C100.36 37.7363 100.884 37.959 101.514 37.959C102.156 37.959 102.683 37.7334 103.096 37.2822C103.512 36.8311 103.72 36.1909 103.72 35.3618C103.72 34.8374 103.631 34.3804 103.452 33.9907C103.277 33.5981 103.017 33.2949 102.674 33.0811C102.335 32.8643 101.952 32.7559 101.527 32.7559C100.924 32.7559 100.404 32.9639 99.9674 33.3799C99.5338 33.793 99.317 34.4844 99.317 35.4541ZM106.012 32.1362H110.191V32.8965H106.864V34.8828H108.402C108.971 34.8828 109.422 34.937 109.756 35.0454C110.093 35.1538 110.362 35.3589 110.565 35.6606C110.767 35.9595 110.868 36.3081 110.868 36.7065C110.868 37.0317 110.795 37.3364 110.648 37.6206C110.505 37.9019 110.289 38.1318 110.002 38.3105C109.715 38.4893 109.226 38.5786 108.534 38.5786H106.012V32.1362ZM106.864 37.8535H108.569C109.029 37.8535 109.374 37.7598 109.602 37.5723C109.834 37.3848 109.949 37.1035 109.949 36.7285C109.949 36.4619 109.883 36.2393 109.752 36.0605C109.62 35.8818 109.437 35.7632 109.202 35.7046C108.968 35.646 108.568 35.6167 108.003 35.6167H106.864V37.8535ZM112.162 32.1362H112.935V37.2383L116.363 32.1362H117.22V38.5786H116.446V33.4897L113.014 38.5786H112.162V32.1362ZM119.358 32.1362H123.392V38.5786H122.539V32.8965H120.21V36.2144C120.21 36.8882 120.178 37.3818 120.113 37.6953C120.052 38.0088 119.92 38.2534 119.718 38.4292C119.516 38.6021 119.259 38.6885 118.949 38.6885C118.761 38.6885 118.536 38.6533 118.272 38.583L118.417 37.8271C118.558 37.8857 118.678 37.915 118.777 37.915C118.971 37.915 119.116 37.8433 119.212 37.6997C119.309 37.5532 119.358 37.2104 119.358 36.6714V32.1362ZM125.094 32.1362H125.947V34.8872H127.485C128.203 34.8872 128.723 34.9707 129.045 35.1377C129.367 35.3047 129.599 35.5317 129.739 35.8188C129.88 36.106 129.95 36.4019 129.95 36.7065C129.95 37.2046 129.78 37.6411 129.44 38.0161C129.101 38.3911 128.468 38.5786 127.542 38.5786H125.094V32.1362ZM125.947 37.8535H127.507C128.14 37.8535 128.551 37.7422 128.742 37.5195C128.935 37.2939 129.032 37.0229 129.032 36.7065C129.032 36.4487 128.961 36.2305 128.821 36.0518C128.683 35.8701 128.499 35.7529 128.267 35.7002C128.036 35.6475 127.643 35.6211 127.089 35.6211H125.947V37.8535ZM131.266 38.5786V32.1362H132.119V34.7817H135.467V32.1362H136.32V38.5786H135.467V35.542H132.119V38.5786H131.266ZM138.058 32.1362H138.91V34.8872H140.448C141.456 34.8872 142.118 35.0732 142.435 35.4453C142.754 35.8174 142.914 36.2393 142.914 36.7109C142.914 37.209 142.744 37.6455 142.404 38.0205C142.064 38.3926 141.433 38.5786 140.51 38.5786H138.058V32.1362ZM138.91 37.8535H140.47C141.006 37.8535 141.395 37.7642 141.635 37.5854C141.878 37.4038 142 37.1152 142 36.7197C142 36.4502 141.926 36.2246 141.78 36.043C141.633 35.8613 141.444 35.7456 141.213 35.6958C140.981 35.646 140.595 35.6211 140.053 35.6211H138.91V37.8535ZM143.687 32.1362H144.54V38.5786H143.687V32.1362ZM146.273 38.5786V32.1362H150.931V32.8965H147.125V34.8696H150.689V35.6255H147.125V37.8184H151.081V38.5786H146.273ZM154.596 38.5786L157.07 32.1362H157.988L160.625 38.5786H159.654L158.902 36.6274H156.208L155.501 38.5786H154.596ZM156.455 35.9331H158.639L157.966 34.1489C157.761 33.6069 157.609 33.1616 157.509 32.813C157.427 33.2261 157.311 33.6362 157.162 34.0435L156.455 35.9331ZM161.589 32.1362H162.442V34.9575C162.831 34.9575 163.105 34.8828 163.264 34.7334C163.422 34.5811 163.624 34.2178 163.87 33.6436C164.049 33.2217 164.195 32.9243 164.31 32.7515C164.427 32.5757 164.592 32.4292 164.806 32.312C165.02 32.1919 165.256 32.1318 165.514 32.1318C165.842 32.1318 166.015 32.1348 166.032 32.1406V32.8789C166.003 32.8789 165.946 32.8774 165.861 32.8745C165.767 32.8716 165.71 32.8701 165.689 32.8701C165.417 32.8701 165.215 32.936 165.083 33.0679C164.948 33.1997 164.794 33.481 164.622 33.9116C164.405 34.4565 164.222 34.8008 164.072 34.9443C163.923 35.085 163.744 35.1978 163.536 35.2827C163.952 35.397 164.362 35.7808 164.767 36.4341L166.094 38.5786H165.035L163.958 36.8296C163.662 36.3462 163.415 36.0151 163.215 35.8364C163.016 35.6548 162.758 35.564 162.442 35.564V38.5786H161.589V32.1362ZM167.106 32.1362H167.959V34.9575C168.349 34.9575 168.622 34.8828 168.781 34.7334C168.939 34.5811 169.141 34.2178 169.387 33.6436C169.566 33.2217 169.712 32.9243 169.827 32.7515C169.944 32.5757 170.109 32.4292 170.323 32.312C170.537 32.1919 170.773 32.1318 171.031 32.1318C171.359 32.1318 171.532 32.1348 171.549 32.1406V32.8789C171.52 32.8789 171.463 32.8774 171.378 32.8745C171.284 32.8716 171.227 32.8701 171.206 32.8701C170.934 32.8701 170.732 32.936 170.6 33.0679C170.465 33.1997 170.311 33.481 170.139 33.9116C169.922 34.4565 169.739 34.8008 169.589 34.9443C169.44 35.085 169.261 35.1978 169.053 35.2827C169.469 35.397 169.879 35.7808 170.284 36.4341L171.611 38.5786H170.552L169.475 36.8296C169.179 36.3462 168.932 36.0151 168.732 35.8364C168.533 35.6548 168.275 35.564 167.959 35.564V38.5786H167.106V32.1362ZM172.065 32.1362H172.927L175.027 36.0825L176.864 32.1362H177.712L175.295 37.146C174.994 37.7729 174.746 38.1831 174.553 38.3765C174.359 38.5698 174.082 38.6665 173.722 38.6665C173.502 38.6665 173.233 38.6152 172.913 38.5127V37.7832C173.142 37.915 173.384 37.981 173.639 37.981C173.847 37.981 174.025 37.915 174.175 37.7832C174.327 37.6484 174.494 37.3438 174.676 36.8691L172.065 32.1362ZM178.681 38.5786V32.1362H179.964L181.489 36.6978C181.63 37.1226 181.732 37.4404 181.797 37.6514C181.87 37.417 181.984 37.0728 182.14 36.6187L183.682 32.1362H184.829V38.5786H184.007V33.1865L182.135 38.5786H181.366L179.503 33.0942V38.5786H178.681ZM185.824 32.1362H186.685L188.786 36.0825L190.623 32.1362H191.471L189.054 37.146C188.752 37.7729 188.505 38.1831 188.311 38.3765C188.118 38.5698 187.841 38.6665 187.481 38.6665C187.261 38.6665 186.992 38.6152 186.672 38.5127V37.7832C186.901 37.915 187.142 37.981 187.397 37.981C187.605 37.981 187.784 37.915 187.933 37.7832C188.086 37.6484 188.253 37.3438 188.434 36.8691L185.824 32.1362ZM192.638 32.1362H196.672V38.5786H195.819V32.8965H193.49V36.2144C193.49 36.8882 193.458 37.3818 193.393 37.6953C193.332 38.0088 193.2 38.2534 192.998 38.4292C192.796 38.6021 192.539 38.6885 192.229 38.6885C192.041 38.6885 191.816 38.6533 191.552 38.583L191.697 37.8271C191.838 37.8857 191.958 37.915 192.057 37.915C192.251 37.915 192.396 37.8433 192.493 37.6997C192.589 37.5532 192.638 37.2104 192.638 36.6714V32.1362ZM203.441 38.5786V32.1362H200.585C200.011 32.1362 199.574 32.1948 199.275 32.312C198.976 32.4263 198.738 32.6299 198.559 32.9229C198.38 33.2158 198.291 33.5396 198.291 33.894C198.291 34.3511 198.439 34.7363 198.735 35.0498C199.031 35.3633 199.488 35.5625 200.106 35.6475C199.88 35.7559 199.709 35.8628 199.592 35.9683C199.343 36.1968 199.107 36.4824 198.884 36.8252L197.764 38.5786H198.836L199.688 37.2383C199.937 36.8516 200.142 36.5557 200.304 36.3506C200.465 36.1455 200.608 36.002 200.734 35.9199C200.863 35.8379 200.993 35.7808 201.125 35.7485C201.222 35.728 201.38 35.7178 201.6 35.7178H202.589V38.5786H203.441ZM202.589 34.9795H200.756C200.367 34.9795 200.062 34.9399 199.842 34.8608C199.622 34.7788 199.455 34.6499 199.341 34.4741C199.227 34.2954 199.17 34.1021 199.17 33.894C199.17 33.5894 199.28 33.3389 199.499 33.1426C199.722 32.9463 200.072 32.8481 200.55 32.8481H202.589V34.9795ZM206.757 38.5786V32.8965H204.634V32.1362H209.741V32.8965H207.609V38.5786H206.757ZM210.226 35.4409C210.226 34.3716 210.513 33.5352 211.087 32.9316C211.661 32.3252 212.403 32.022 213.311 32.022C213.906 32.022 214.442 32.1641 214.919 32.4482C215.397 32.7324 215.76 33.1294 216.009 33.6392C216.261 34.146 216.387 34.7217 216.387 35.3662C216.387 36.0195 216.255 36.604 215.992 37.1196C215.728 37.6353 215.354 38.0264 214.871 38.293C214.387 38.5566 213.866 38.6885 213.306 38.6885C212.7 38.6885 212.158 38.542 211.68 38.249C211.203 37.9561 210.841 37.5562 210.595 37.0493C210.349 36.5425 210.226 36.0063 210.226 35.4409ZM211.105 35.4541C211.105 36.2305 211.313 36.8428 211.729 37.291C212.148 37.7363 212.672 37.959 213.302 37.959C213.944 37.959 214.471 37.7334 214.884 37.2822C215.3 36.8311 215.508 36.1909 215.508 35.3618C215.508 34.8374 215.419 34.3804 215.24 33.9907C215.064 33.5981 214.805 33.2949 214.462 33.0811C214.122 32.8643 213.74 32.7559 213.315 32.7559C212.712 32.7559 212.192 32.9639 211.755 33.3799C211.322 33.793 211.105 34.4844 211.105 35.4541ZM217.76 38.5786V32.1362H220.19C220.618 32.1362 220.945 32.1567 221.17 32.1978C221.487 32.2505 221.752 32.3516 221.966 32.501C222.179 32.6475 222.351 32.854 222.48 33.1206C222.612 33.3872 222.678 33.6802 222.678 33.9995C222.678 34.5474 222.503 35.0117 222.155 35.3926C221.806 35.7705 221.176 35.9595 220.265 35.9595H218.613V38.5786H217.76ZM218.613 35.1992H220.278C220.829 35.1992 221.22 35.0967 221.451 34.8916C221.683 34.6865 221.799 34.3979 221.799 34.0259C221.799 33.7563 221.73 33.5264 221.592 33.3359C221.457 33.1426 221.279 33.0151 221.056 32.9536C220.912 32.9155 220.647 32.8965 220.261 32.8965H218.613V35.1992ZM224.077 32.1362H224.929V34.8872H226.468C227.475 34.8872 228.137 35.0732 228.454 35.4453C228.773 35.8174 228.933 36.2393 228.933 36.7109C228.933 37.209 228.763 37.6455 228.423 38.0205C228.083 38.3926 227.452 38.5786 226.529 38.5786H224.077V32.1362ZM224.929 37.8535H226.49C227.026 37.8535 227.414 37.7642 227.654 37.5854C227.897 37.4038 228.019 37.1152 228.019 36.7197C228.019 36.4502 227.946 36.2246 227.799 36.043C227.653 35.8613 227.464 35.7456 227.232 35.6958C227.001 35.646 226.614 35.6211 226.072 35.6211H224.929V37.8535ZM229.706 32.1362H230.559V38.5786H229.706V32.1362ZM235.014 38.5786V32.1362H237.431C237.924 32.1362 238.318 32.2021 238.613 32.334C238.912 32.4629 239.145 32.6636 239.312 32.936C239.482 33.2056 239.567 33.4883 239.567 33.7842C239.567 34.0596 239.492 34.3188 239.343 34.562C239.194 34.8052 238.968 35.0015 238.666 35.1509C239.056 35.2651 239.355 35.46 239.563 35.7354C239.774 36.0107 239.879 36.3359 239.879 36.7109C239.879 37.0127 239.815 37.2939 239.686 37.5547C239.56 37.8125 239.403 38.0117 239.216 38.1523C239.028 38.293 238.792 38.3999 238.508 38.4731C238.227 38.5435 237.881 38.5786 237.471 38.5786H235.014ZM235.867 34.8433H237.26C237.638 34.8433 237.909 34.8184 238.073 34.7686C238.29 34.7041 238.452 34.5972 238.561 34.4478C238.672 34.2983 238.728 34.1108 238.728 33.8853C238.728 33.6714 238.676 33.4839 238.574 33.3228C238.471 33.1587 238.325 33.0474 238.134 32.9888C237.944 32.9272 237.617 32.8965 237.154 32.8965H235.867V34.8433ZM235.867 37.8184H237.471C237.746 37.8184 237.94 37.8081 238.051 37.7876C238.247 37.7524 238.411 37.6938 238.543 37.6118C238.675 37.5298 238.783 37.4111 238.868 37.2559C238.953 37.0977 238.996 36.916 238.996 36.7109C238.996 36.4707 238.934 36.2627 238.811 36.0869C238.688 35.9082 238.517 35.7837 238.297 35.7134C238.08 35.6401 237.767 35.6035 237.357 35.6035H235.867V37.8184ZM244.071 38.5786V32.1362H245.354L246.879 36.6978C247.02 37.1226 247.122 37.4404 247.187 37.6514C247.26 37.417 247.374 37.0728 247.529 36.6187L249.072 32.1362H250.219V38.5786H249.397V33.1865L247.525 38.5786H246.756L244.893 33.0942V38.5786H244.071ZM251.878 32.1362H252.651V37.2383L256.079 32.1362H256.936V38.5786H256.162V33.4897L252.73 38.5786H251.878V32.1362ZM258.63 38.5786V32.1362H259.482V34.7817H262.831V32.1362H263.683V38.5786H262.831V35.542H259.482V38.5786H258.63ZM269.974 36.3198L270.826 36.5352C270.648 37.2354 270.325 37.77 269.859 38.1392C269.397 38.5054 268.83 38.6885 268.159 38.6885C267.464 38.6885 266.899 38.5479 266.463 38.2666C266.029 37.9824 265.698 37.5723 265.469 37.0361C265.244 36.5 265.131 35.9243 265.131 35.3091C265.131 34.6382 265.258 34.0537 265.513 33.5557C265.771 33.0547 266.136 32.6753 266.608 32.4175C267.082 32.1567 267.604 32.0264 268.172 32.0264C268.817 32.0264 269.359 32.1904 269.798 32.5186C270.237 32.8467 270.544 33.3081 270.716 33.9028L269.877 34.1006C269.728 33.6318 269.511 33.2905 269.227 33.0767C268.942 32.8628 268.585 32.7559 268.154 32.7559C267.659 32.7559 267.245 32.8745 266.911 33.1118C266.58 33.3491 266.347 33.6685 266.212 34.0698C266.077 34.4683 266.01 34.8799 266.01 35.3047C266.01 35.8525 266.089 36.3315 266.247 36.7417C266.408 37.1489 266.657 37.4536 266.994 37.6558C267.331 37.8579 267.696 37.959 268.088 37.959C268.566 37.959 268.97 37.8213 269.301 37.5459C269.632 37.2705 269.857 36.8618 269.974 36.3198ZM272.164 32.1362H273.017V34.9575C273.406 34.9575 273.68 34.8828 273.838 34.7334C273.997 34.5811 274.199 34.2178 274.445 33.6436C274.624 33.2217 274.77 32.9243 274.884 32.7515C275.002 32.5757 275.167 32.4292 275.381 32.312C275.595 32.1919 275.831 32.1318 276.088 32.1318C276.417 32.1318 276.589 32.1348 276.607 32.1406V32.8789C276.578 32.8789 276.521 32.8774 276.436 32.8745C276.342 32.8716 276.285 32.8701 276.264 32.8701C275.992 32.8701 275.79 32.936 275.658 33.0679C275.523 33.1997 275.369 33.481 275.196 33.9116C274.98 34.4565 274.796 34.8008 274.647 34.9443C274.498 35.085 274.319 35.1978 274.111 35.2827C274.527 35.397 274.937 35.7808 275.341 36.4341L276.669 38.5786H275.609L274.533 36.8296C274.237 36.3462 273.989 36.0151 273.79 35.8364C273.591 35.6548 273.333 35.564 273.017 35.564V38.5786H272.164V32.1362ZM277.686 38.5786V32.1362H282.344V32.8965H278.538V34.8696H282.102V35.6255H278.538V37.8184H282.493V38.5786H277.686Z" fill="#444444"/>
<path fill-rule="evenodd" clip-rule="evenodd" d="M5.07983 4.98253L7.14796 5.57611L7.61964 6.36756L8.63556 4.62278L8.39972 1.60089L5.07983 4.98253ZM18.0691 3.03988L18.0147 7.12303L18.7041 7.14102L18.7585 3.0219L18.0691 3.03988ZM0.65332 16.0088L1.3427 16.5844L8.436 10.1269L52.7919 14.6238L52.8463 14.0122L8.54485 8.77787L0.65332 16.0088ZM10.1232 2.42831L9.99617 5.00051L11.4293 5.1624L11.9554 6.27762L13.443 6.60139V3.95724H14.9306V6.47548L16.2368 6.74529V3.32768L10.2864 1.8707L10.1232 2.42831ZM25.4708 6.52944L27.6659 6.1697L34.4327 2.75209L38.8774 7.3029L38.8411 7.62668L42.1065 7.60869L44.991 6.70932L52.8281 7.14102L52.6467 8.598L47.9299 9.82114L47.7304 11.1162L46.5693 10.9723V7.71661L44.3742 7.7346L44.2654 10.6845L41.3446 10.3068L41.3265 8.3102L40.5827 8.49007L40.6371 10.2169L38.7141 9.96504L26.9947 8.4541L25.4708 8.41812V6.52944ZM27.4845 8.32819L29.9518 7.66265L35.4486 7.64466L37.1539 7.32089L34.0699 4.31699L27.4845 6.78127V8.32819Z" fill="black"/>
<path fill-rule="evenodd" clip-rule="evenodd" d="M14.4587 38.9788C17.0167 34.4459 19.5021 30.075 21.8786 25.8659C24.1644 21.8188 26.3958 17.8975 28.5365 14.1201C31.1126 14.4259 33.598 14.7317 35.9927 15.0375C38.3148 15.3253 40.5824 15.5951 42.7594 15.8649C42.8501 19.4984 42.9408 23.1318 43.0315 26.8013C43.1222 30.4887 43.2311 34.2121 43.3218 37.9355C42.0338 37.9895 40.7276 38.0254 39.4032 38.0794C38.0426 38.1334 36.6639 38.1873 35.267 38.2233C35.2489 37.0721 35.2307 35.9209 35.2126 34.7877C34.0697 34.8057 32.8905 34.8237 31.7113 34.8237C30.5139 34.8417 29.2803 34.8596 28.0467 34.8776C27.4299 36.1008 26.8131 37.3239 26.1781 38.5651C24.3277 38.637 22.4591 38.709 20.518 38.7629C18.5406 38.8169 16.5269 38.9068 14.4587 38.9788ZM30.6772 28.8339C32.2555 28.8698 33.7975 28.9238 35.3033 28.9598C35.2851 27.5208 35.2489 26.0818 35.2307 24.6428C35.2126 23.2038 35.1944 21.7828 35.1763 20.3438C34.4506 21.7108 33.7068 23.0959 32.963 24.5169C32.2192 25.9199 31.4573 27.3589 30.6772 28.8339Z" fill="#000001"/>
<path fill-rule="evenodd" clip-rule="evenodd" d="M15.1482 38.4391C17.7061 33.9063 20.1915 29.5353 22.568 25.3263C24.8539 21.2791 27.0853 17.3579 29.226 13.5805C31.802 13.8863 34.2874 14.1921 36.6821 14.4979C39.0042 14.7857 41.2719 15.0555 43.4489 15.3253C43.5396 18.9587 43.6303 22.5922 43.721 26.2616C43.8117 29.9491 43.9205 33.6725 44.0112 37.3959C42.7232 37.4498 41.417 37.4858 40.0927 37.5398C38.7321 37.5937 37.3533 37.6477 35.9564 37.6837C35.9383 36.5325 35.9202 35.3813 35.902 34.2481C34.7591 34.266 33.5799 34.284 32.4007 34.284C31.2034 34.302 29.9698 34.32 28.7361 34.338C28.1193 35.5611 27.5025 36.7843 26.8676 38.0254C25.0171 38.0974 23.1486 38.1693 21.2074 38.2233C19.23 38.2952 17.2163 38.3672 15.1482 38.4391ZM31.3667 28.2942C32.945 28.3302 34.487 28.3842 35.9927 28.4201C35.9746 26.9811 35.9564 25.5421 35.9202 24.1031C35.902 22.6642 35.8839 21.2431 35.8657 19.8042C35.1401 21.1712 34.3963 22.5562 33.6525 23.9772C32.9087 25.3982 32.1467 26.8372 31.3667 28.2942Z" fill="white"/>
<path fill-rule="evenodd" clip-rule="evenodd" d="M16.9805 37.8455C18.6313 37.7915 19.5384 37.6656 21.1893 37.5937C22.949 37.5217 24.7087 37.4678 26.4684 37.3958C27.0308 36.2806 27.5932 35.1654 28.1737 34.0502L28.3552 33.7084H28.7361C29.9516 33.6904 31.1852 33.6724 32.4007 33.6544C33.5618 33.6364 34.741 33.6185 35.902 33.6185H36.537V34.248C36.5551 35.1834 36.5732 36.1187 36.5732 37.0541C37.7343 37.0181 38.8953 36.9641 40.0745 36.9282C41.163 36.8922 42.2696 36.8562 43.3581 36.8022C43.2674 33.2947 43.1767 29.7871 43.086 26.2796C42.9953 22.808 42.9046 19.3544 42.8139 15.8829C40.7458 15.631 38.6595 15.3792 36.5914 15.1274C34.2511 14.8396 32.6547 14.6058 30.2963 14.318C28.1556 18.1133 25.9968 21.9087 23.8561 25.704C21.5703 29.7512 19.2663 33.7983 16.9805 37.8455ZM30.8224 28.0064C31.5843 26.5674 32.3463 25.1284 33.1082 23.6714C33.852 22.2864 34.5777 20.9014 35.3215 19.4983L36.4825 17.3219L36.5007 19.7861C36.5188 21.2251 36.537 22.6461 36.5551 24.0851C36.5732 25.5241 36.5914 26.9631 36.6277 28.4021L36.6458 29.0497L35.9927 29.0317C34.4507 28.9957 32.9087 28.9417 31.3666 28.9058L30.3507 28.8878L30.8224 28.0064Z" fill="#FCB51E"/>
<path fill-rule="evenodd" clip-rule="evenodd" d="M52.4651 37.7556L8.81675 39.0507L8.98003 10.3068L8.27251 10.3248L8.30879 12.6992L1.90486 17.9155L1.88672 18.4371L8.25437 13.6345V39.1766V41.8568L8.98003 42.1086L8.96189 39.7342L52.4288 38.3312L52.4651 37.7556Z" fill="#E0E0DF"/>
<path fill-rule="evenodd" clip-rule="evenodd" d="M8.09106 6.02579L8.21805 8.22025H8.83486V6.09774L8.09106 6.02579Z" fill="white"/>
</svg>
