<svg width="17" height="18" viewBox="0 0 17 18" fill="none" xmlns="http://www.w3.org/2000/svg">
<path d="M13.9079 2.64637L11.6727 4.30784L12.4767 6.92851L10.1532 5.37838L7.82967 6.92851L8.63362 4.30784L6.39847 2.64637L9.21671 2.56929L10.1532 0L11.0896 2.56929L13.9079 2.64637ZM17 8.56429L15.5511 9.63483L16.0724 11.3306L14.5705 10.3285L13.0686 11.3306L13.5898 9.63483L12.141 8.56429L13.9609 8.52147L14.5705 6.85143L15.1801 8.52147L17 8.56429ZM14.9857 12.8036C15.719 12.7351 16.5053 13.7457 16.037 14.388C15.7543 14.7734 15.4539 15.1331 15.0829 15.4757C11.6286 18.8414 6.03625 18.8414 2.59075 15.4757C-0.863583 12.1356 -0.863583 6.70584 2.59075 3.36577C2.94413 3.02319 3.31519 2.71488 3.71274 2.44082C4.37534 1.98692 5.41783 2.74914 5.34715 3.45997C5.10861 5.90936 5.95674 8.45296 7.90035 10.3285C8.8188 11.2237 9.93079 11.91 11.1561 12.3381C12.3813 12.7661 13.6894 12.9251 14.9857 12.8036ZM13.5368 14.5336C10.9433 14.3891 8.49316 13.3324 6.64584 11.5618C4.72872 9.68621 3.70391 7.27965 3.56256 4.86452C1.08003 7.5537 1.17721 11.6817 3.83643 14.2681C6.50448 16.846 10.7628 16.9402 13.5368 14.5336Z" fill="#C9C9C9"/>
</svg>
