<svg width="25" height="25" viewBox="0 0 25 25" fill="none" xmlns="http://www.w3.org/2000/svg">
<path d="M12.4615 0C5.59026 0 0 5.60734 0 12.5004C0 19.3927 5.5895 25 12.4615 25C12.8865 25 13.2298 24.6549 13.2298 24.2301C13.2298 23.8046 12.8865 23.4595 12.4615 23.4595C6.43715 23.4595 1.53738 18.5432 1.53738 12.5011C1.53738 6.45835 6.43715 1.54208 12.4615 1.54208C18.4859 1.54208 23.3849 6.45835 23.3849 12.5011C23.3849 15.0259 22.0452 17.5299 20.1278 18.5891C19.4312 18.9733 18.6759 19.1638 17.8702 19.1715C18.3539 18.8822 18.7728 18.4927 19.0841 17.9998C19.1451 17.9072 19.226 17.8269 19.2657 17.7251C19.5159 17.1213 19.5381 16.4363 19.6891 15.7996C19.8745 14.9838 16.1352 13.3943 15.8102 14.4106C15.6927 14.7879 15.5126 15.9779 15.2769 16.2917C15.0671 16.571 14.5498 16.4394 14.2263 16.1631C13.374 15.4345 12.4226 14.3631 11.5879 13.5175L11.5895 13.5167C11.5681 13.4945 11.5422 13.4692 11.5193 13.4471C11.4956 13.4241 11.472 13.3996 11.4483 13.3766C10.6045 12.5402 9.53632 11.5874 8.81074 10.7302C8.53607 10.4058 8.40332 9.88842 8.68256 9.6772C8.99538 9.43995 10.1826 9.26164 10.5579 9.14302C11.5696 8.81777 9.98571 5.06474 9.17239 5.25224C8.5376 5.40148 7.85474 5.42443 7.25276 5.67469C7.15053 5.71754 7.07118 5.79713 6.97886 5.85836C4.84331 7.21676 4.56788 10.5137 6.65231 12.9695C7.44656 13.9093 8.27514 14.8185 9.12814 15.7062L9.12356 15.7093C9.14721 15.733 9.17163 15.7552 9.19604 15.7782C9.21893 15.8019 9.24105 15.8256 9.26318 15.8509L9.26776 15.8463C10.1528 16.7019 11.2019 17.9616 12.9063 19.1026C16.4946 21.5064 19.2481 20.8352 20.8702 19.9429C23.6703 18.3962 24.9231 15.0924 24.9231 12.505C24.9238 5.60734 19.3328 0 12.4615 0Z" fill="white"/>
</svg>
