<svg width="21" height="21" viewBox="0 0 21 21" fill="none" xmlns="http://www.w3.org/2000/svg">
<path fill-rule="evenodd" clip-rule="evenodd" d="M0 8.2811C0 12.8675 3.69464 16.5622 8.2811 16.5622C10.3443 16.5622 12.2271 15.8145 13.6742 14.5743L19.2682 20.1683L20.169 19.2676L14.5749 13.6735C15.8148 12.2265 16.5622 10.344 16.5622 8.2811C16.5622 3.69464 12.8675 0 8.2811 0C3.69464 0 0 3.69464 0 8.2811ZM1.27401 8.2811C1.27401 4.39535 4.39535 1.27401 8.2811 1.27401C12.1668 1.27401 15.2882 4.39535 15.2882 8.2811C15.2882 12.1668 12.1668 15.2882 8.2811 15.2882C4.39535 15.2882 1.27401 12.1668 1.27401 8.2811Z" fill="#A4A8AC"/>
</svg>
