<svg width="74" height="103" viewBox="0 0 74 103" fill="none" xmlns="http://www.w3.org/2000/svg">
<path fill-rule="evenodd" clip-rule="evenodd" d="M63.0458 1L68.2496 2.91368L65.2313 6.57831H63.7542L56.1566 17.6247L56.7513 21.6532L60.1196 19.5338L66.7452 7.95344L65.6825 6.37031L68.5274 3.1544L73 5.25516L71.4894 8.76083L71.4856 8.76939L65.648 21.9353L62.6466 33.6255V39.0334H65.7305L64.8211 61.9649L60.1006 92.763L58.4177 92.4094L57.5565 102L51.6851 101.48L52.561 92.0933L50.272 91.7435L49.2349 67.6369L49.1552 67.6292L51.8431 39.0334H53.9772L52.7531 35.8179L49.6395 32.3829H43.831L38.4835 33.9778L39.6692 35.4015L25.0609 49.8043L8.55506 59.1006L1 52.7502L14.6563 40.4931L31.7039 29.1804L33.7903 30.4081L43.1247 21.6698L50.8026 14.6382L58.3 6.38531L58.3088 6.37542L63.0458 1ZM50.9514 67.0951L53.4229 40.8014H56.5142L54.2547 34.8663L50.4011 30.6148H43.5814L35.4298 33.0462L37.2923 35.2827L24.017 48.3713L8.74925 56.9703L3.67615 52.7061L15.7116 41.9038L31.7586 31.2551L34.0266 32.5896L44.2877 22.9838L52.0249 15.8977L59.5898 7.57043L63.5574 3.06816L65.3208 3.71663L64.42 4.81029H62.849L54.3348 17.1893L55.4239 24.5673L61.4033 20.805L68.7993 7.87816L67.8879 6.52042L68.9622 5.30603L70.7238 6.13344L69.9012 8.04249L69.8975 8.05106L64.0034 21.3443L60.9085 33.3984V40.8014H63.9209L63.0884 61.7925L58.6645 90.6559L56.8638 90.2775L55.9831 100.086L53.5809 99.8736L54.4468 90.5936L51.9458 90.2114L50.9514 67.0951Z" fill="#FF9933" stroke="#FF9933"/>
</svg>
