<svg width="286" height="44" fill="none" xmlns="http://www.w3.org/2000/svg"><path fill-rule="evenodd" clip-rule="evenodd" d="M.435 39.878v1.565l5.08 1.385 1.996.09 1.015.252L53.5 41.155v-1.709l-1.07-.611v-3.022l.272-1.007-.327-19.39 1.234-.612v-2.177l-.308-.324-5.878-.809v-1.061l5.061-1.907.037-.845-7.402-.774-.49.054-1.125.45-1.487.036-.89.09-.87.45-.345-.324-.471-.108-.472.09-.2.126-4.499-5.037-.326-.036-6.93 3.022-1.742-.108 3.755-3.885-.181-.306-1.506.54-4.01 2.77-.217.126h-.435l-.526.09-.544.161-.527-.036v-.755l-2.068-.666-.69-.233-.144-.126.725-.612-.58-.557L8.58.558 8.109.522 7.783.63 4.245 4.335l.036.648.182.233 1.125-.036.87.378-.036.414-2.74-.36-1.45 1.799v1.727l-.78.827v2.626L0 14.246v1.997l.798.323-.217.414-.019.144.58.468s-.054 21.747 0 21.747c.055 0-.707.54-.707.54z" fill="#000001"/><path fill-rule="evenodd" clip-rule="evenodd" d="M.889 39.339v1.564l5.08 1.385 1.995.09.998.27 44.972-2.014v-1.71l-1.07-.61V35.29l.272-1.007-.326-19.408 1.233-.612v-2.176l-.308-.324-5.878-.81V9.911l5.062-1.907.036-.845-7.402-.755-.49.035-1.125.45-1.487.036-.889.09-.87.45-.346-.324-.471-.126-.472.09-.218.126-4.499-5.037-.308-.018-6.93 3.022-1.742-.108 3.774-3.885L29.298.9l-1.542.54-4.009 2.77-.2.108h-.435l-.526.09-.544.162-.526-.036v-.738l-2.068-.665-.69-.234-.145-.126.726-.612-.58-.575L9.033.036 8.544 0l-.326.108L4.68 3.795l.037.648.181.234 1.125-.036.87.377-.036.432-2.739-.36-1.433 1.781v1.727l-.798.845v2.627L.435 13.724v1.997l.799.324-.218.413-.018.126.58.468s-.054 21.747 0 21.747c.055 0-.69.54-.69.54z" fill="#A4A8AC"/><path fill-rule="evenodd" clip-rule="evenodd" d="M65.89 23.336h6.005l1.197-2.015h5.17l-.018 2.015h5.297l.073-13.329h-9.651L65.89 23.336zm8.635-4.893l3.955-6.44-.073 6.44h-3.882zm10.903 4.893h5.443l.98-3.651c.072-.252.144-.522.199-.774.054-.288.109-.558.163-.845l.2-1.206.344 1.188c.127.413.272.81.418 1.223.036.09.072.18.09.27l1.433 3.813h5.933l-2.758-6.278 6.549-7.05h-6.603l-3.211 3.957c-.037.053-.09.107-.127.161-.381.45-.726.9-1.052 1.385l-.145.216-.454-.216.09-.233c.128-.324.236-.666.327-1.008.11-.341.2-.665.29-1.007l.853-3.238h-5.334l-3.628 13.293zm20.355-13.329h5.406l-2.249 8.275a5.55 5.55 0 00-.127.54c-.019.125-.055.269-.055.413 0 .36.109.701.381.953.29.252.689.306 1.052.306.526 0 1.016-.144 1.415-.504.418-.377.635-.953.78-1.493l2.304-8.508h5.443l-2.304 8.4c-.218.81-.508 1.907-.907 2.645-.236.45-.544.863-.944 1.187-.725.575-1.632.9-2.521 1.115-1.27.306-2.667.378-3.973.378-1.47 0-3.665-.09-5.007-.756-.944-.467-1.433-1.205-1.433-2.248 0-.306.036-.612.09-.918a17.4 17.4 0 01.345-1.385l2.304-8.4zm24.963 0h-7.384l-3.628 13.329h5.152l1.415-5.198a33.812 33.812 0 00.617-2.644l.054-.234.49.036.018.251.109 1.727c.018.288.054.576.073.864l.489 5.198H131l3.664-5.63c.363-.54.69-1.115 1.034-1.673l.436-.72.453.198-.072.234c-.182.558-.345 1.115-.527 1.673l-.163.54-1.451 5.36h5.134l3.628-13.329h-7.547l-3.283 5.594c-.182.324-.381.648-.544.972a8.858 8.858 0 00-.345.72l-.671 1.456.127-1.6c.018-.216.018-.432.036-.648 0-.198.018-.414.018-.612v-.63c0-.143 0-.287-.018-.413l-.163-4.82zm15.583 0l-2.304 8.4c-.127.45-.254.936-.345 1.386-.054.305-.09.611-.09.917 0 1.061.471 1.78 1.433 2.248 1.342.666 3.537.756 5.007.756 1.306 0 2.703-.072 3.973-.378.889-.216 1.796-.54 2.522-1.115a3.76 3.76 0 00.943-1.187c.399-.738.689-1.835.907-2.645l2.304-8.4h-5.442l-2.304 8.508c-.146.522-.363 1.116-.78 1.493-.4.36-.889.504-1.416.504-.362 0-.761-.072-1.052-.306-.29-.234-.381-.593-.381-.953 0-.144.018-.27.055-.414.036-.18.09-.36.127-.54l2.267-8.274h-5.424zm13.915 13.329l3.628-13.329h5.46l-2.449 8.994h5.769l-1.179 4.317h-11.229v.018zm13.061 0h6.005l1.198-2.015h5.17l-.018 2.015h5.297l.073-13.329h-9.652l-8.073 13.329zm8.636-4.893l3.955-6.44-.073 6.44h-3.882zm24.346-4.425l1.088-3.993h-13.007l-1.089 3.993h3.882l-2.539 9.318h5.478l2.522-9.317h3.665zm.58 5.469c0-.324.018-.648.055-.972.036-.36.09-.72.163-1.079.181-.953.435-1.889.78-2.806.254-.684.562-1.403.998-1.997a7.836 7.836 0 011.578-1.708 5.188 5.188 0 011.814-.9c.653-.18 1.324-.288 1.996-.36.816-.09 1.632-.107 2.449-.107 1.106 0 2.286.054 3.374.251.798.162 1.578.396 2.286.81.508.288.853.701 1.088 1.241.291.665.363 1.457.363 2.177 0 .54-.036 1.079-.127 1.6-.09.576-.217 1.152-.381 1.727a13.41 13.41 0 01-.943 2.5 9.578 9.578 0 01-1.324 1.961c-.672.738-1.579 1.205-2.54 1.475-1.397.396-3.102.468-4.554.468-1.614 0-4.136-.108-5.551-.99-1.161-.737-1.524-1.978-1.524-3.291zm8.926.665c.344-.144.635-.342.871-.63.199-.233.362-.485.489-.755a6.88 6.88 0 00.399-1.025c.127-.396.236-.81.327-1.223a4.25 4.25 0 00.109-.954c0-.521-.163-.97-.599-1.295-.453-.323-1.088-.413-1.633-.413-.453 0-.907.072-1.306.287a2.375 2.375 0 00-.943.846c-.363.557-.617 1.223-.816 1.87-.182.63-.345 1.314-.345 1.98 0 .485.218.88.635 1.15.471.288 1.088.36 1.614.36.436.018.817-.036 1.198-.198zm8.508 3.184h5.442l.781-2.878c.127-.486.235-.971.344-1.457l.236-1.08.345.792c.127.306.272.612.417.9.109.233.236.45.363.665l1.778 3.058h6.422l-4.009-5.774h.852c1.27 0 2.613-.252 3.556-1.17.943-.916 1.179-2.284 1.179-3.543 0-.755-.145-1.6-.726-2.158-.598-.558-1.523-.684-2.304-.684h-11.048l-3.628 13.329zm7.184-6.476l.943-3.435h2.577c.399 0 .852.054 1.179.306.326.233.435.611.435 1.007 0 .63-.181 1.241-.707 1.637-.563.414-1.397.503-2.087.503h-2.34v-.018zm10.45 5.577c0-.684.163-1.35.725-1.763.653-.486 1.706-.576 2.486-.576.471 0 1.233.036 1.65.27.309.18.4.468.4.792 0 .683-.164 1.384-.726 1.834-.653.504-1.705.594-2.504.594-.453 0-1.233-.036-1.632-.288-.309-.18-.399-.522-.399-.863zm10.939-12.43l-3.628 13.329h10.884c1.016 0 2.359-.036 3.338-.324a3.554 3.554 0 001.706-1.079c.308-.36.526-.773.671-1.205a4.92 4.92 0 00.254-1.53c0-.593-.145-1.204-.635-1.582-.562-.45-1.542-.558-2.25-.594l-.272-.018v-.54l.272-.017c1.125-.036 2.377-.288 3.212-1.097.816-.792 1.052-1.89 1.052-2.986 0-.63-.109-1.403-.635-1.817-.581-.468-1.833-.522-2.558-.522h-11.411v-.018zm3.737 5.936l.689-2.644h2.685c.363 0 .944.018 1.252.216.308.198.399.521.399.863 0 .504-.199.918-.617 1.187-.453.306-1.07.36-1.614.36h-2.794v.018zm-1.27 4.659l.762-2.86h2.885c.362 0 .834.036 1.161.234.308.198.435.503.435.863 0 .522-.2.972-.617 1.313-.453.36-1.016.468-1.578.468h-3.048v-.018zm13.715 2.734h6.404l9.669-13.329h-6.023l-2.721 4.335a6.767 6.767 0 00-.435.792c-.163.36-.309.72-.454 1.079l-.544 1.475v-1.565c0-.306-.018-.594-.036-.9a9.564 9.564 0 00-.109-1.007l-.617-4.209h-5.751l2.667 10.415-2.05 2.914z" fill="#000001"/><path fill-rule="evenodd" clip-rule="evenodd" d="M66.76 22.778h6.005l1.198-2.014h5.17l-.018 2.014h5.297l.073-13.328h-9.652L66.76 22.778zm8.636-4.892l3.955-6.44-.073 6.44h-3.882zm10.903 4.892h5.442l.98-3.651c.072-.252.145-.522.2-.773.054-.288.108-.558.163-.846l.2-1.205.344 1.187c.127.414.272.81.417 1.223.037.09.073.18.091.27l1.433 3.813h5.932l-2.757-6.277 6.549-7.051h-6.604l-3.21 3.957c-.037.054-.091.108-.128.162-.38.45-.725.9-1.052 1.385l-.145.216-.453-.216.09-.234c.127-.324.236-.665.327-1.007.109-.342.2-.666.29-1.008l.853-3.237h-5.334L86.3 22.778zm20.373-13.31h5.406l-2.25 8.274c-.054.18-.09.36-.127.54-.018.125-.054.27-.054.413 0 .36.109.702.381.954.29.251.689.305 1.052.305.526 0 1.016-.144 1.415-.503.417-.378.635-.954.78-1.493l2.304-8.508h5.443l-2.304 8.4c-.218.81-.508 1.906-.907 2.644a3.76 3.76 0 01-.944 1.187c-.725.576-1.633.9-2.521 1.115-1.27.306-2.667.378-3.973.378-1.47 0-3.665-.09-5.007-.755-.944-.468-1.434-1.206-1.434-2.249 0-.306.037-.611.091-.917.073-.468.218-.936.345-1.385l2.304-8.4zm24.962 0h-7.383l-3.629 13.328h5.153l1.415-5.198c.109-.396.217-.81.308-1.205.109-.468.218-.954.308-1.44l.055-.233.49.036.018.252.109 1.727c.018.287.054.575.072.863l.49 5.198h2.848l3.665-5.63c.363-.54.689-1.115 1.034-1.673l.435-.719.454.198-.073.234c-.181.557-.344 1.115-.526 1.672l-.163.54-1.451 5.36h5.134l3.628-13.328h-7.547l-3.283 5.594c-.182.323-.381.647-.545.971a8.516 8.516 0 00-.344.72l-.672 1.457.127-1.601c.018-.216.018-.432.037-.648 0-.198.018-.414.018-.611v-.63c0-.144 0-.288-.018-.414l-.164-4.82zm15.566 0l-2.304 8.4c-.127.45-.254.935-.345 1.385a5.282 5.282 0 00-.091.917c0 1.061.472 1.78 1.434 2.249 1.342.665 3.537.755 5.007.755 1.306 0 2.703-.072 3.973-.378.888-.215 1.796-.54 2.521-1.115a3.76 3.76 0 00.944-1.187c.399-.738.689-1.835.907-2.644l2.304-8.4h-5.443l-2.304 8.508c-.145.521-.381 1.115-.78 1.493-.399.36-.889.503-1.415.503-.363 0-.762-.072-1.052-.305-.29-.234-.381-.594-.381-.954 0-.144.018-.27.054-.413.037-.18.091-.36.127-.54l2.268-8.274H147.2zm13.932 13.31l3.629-13.328h5.46l-2.449 8.993h5.769l-1.179 4.317h-11.23v.018zm13.044 0h6.005l1.197-2.014h5.171l-.019 2.014h5.298L191.9 9.45h-9.651l-8.073 13.328zm8.635-4.892l3.955-6.44-.072 6.44h-3.883zm24.364-4.425l1.089-4.011h-13.008l-1.088 4.01h3.882l-2.54 9.318h5.479l2.522-9.317h3.664zm.563 5.468a11.162 11.162 0 01.217-2.05c.182-.954.436-1.89.781-2.806.254-.684.562-1.404.979-1.997a7.89 7.89 0 011.578-1.709 5.194 5.194 0 011.815-.9 12.54 12.54 0 011.995-.36A22.32 22.32 0 01217.552 9c1.107 0 2.286.054 3.375.252.798.162 1.578.396 2.285.81.508.287.853.7 1.089 1.24.29.666.363 1.457.363 2.177 0 .54-.037 1.08-.127 1.6a14.838 14.838 0 01-.381 1.727 13.347 13.347 0 01-.944 2.5 9.54 9.54 0 01-1.324 1.961c-.671.738-1.578 1.206-2.54 1.475-1.397.396-3.102.468-4.553.468-1.615 0-4.136-.108-5.552-.99-1.142-.737-1.505-1.978-1.505-3.29zm8.925.684c.345-.144.635-.342.871-.63.2-.234.363-.486.49-.756a7.06 7.06 0 00.399-1.025c.127-.396.236-.81.327-1.223a4.3 4.3 0 00.108-.953c0-.522-.181-.971-.598-1.295-.454-.324-1.089-.414-1.633-.414-.453 0-.907.09-1.306.288a2.367 2.367 0 00-.943.845c-.363.558-.617 1.223-.817 1.87-.181.63-.345 1.314-.345 1.98 0 .485.218.88.635 1.15.472.288 1.089.36 1.615.36.435 0 .835-.053 1.197-.197zm8.527 3.165h5.442l.78-2.878c.127-.485.236-.97.345-1.457l.236-1.079.345.792c.127.305.272.611.417.899.109.234.236.45.363.666l1.777 3.057h6.423l-4.01-5.774h.853c1.27 0 2.612-.251 3.556-1.169.925-.917 1.179-2.284 1.179-3.543 0-.756-.145-1.601-.726-2.159-.598-.557-1.524-.683-2.304-.683h-11.048l-3.628 13.328zm7.166-6.475l.943-3.436h2.576c.399 0 .853.054 1.179.306.327.234.436.612.436 1.007 0 .63-.182 1.242-.708 1.637-.562.414-1.397.504-2.086.504h-2.34v-.018zm10.467 5.576c0-.684.164-1.35.726-1.763.653-.485 1.705-.575 2.485-.575.472 0 1.234.036 1.651.27.309.18.399.467.399.79 0 .684-.163 1.386-.725 1.836-.653.503-1.706.593-2.504.593-.453 0-1.233-.036-1.633-.288-.326-.18-.399-.521-.399-.863zm10.94-12.411l-3.629 13.328h10.885c1.016 0 2.359-.036 3.338-.323a3.56 3.56 0 001.706-1.08c.308-.36.526-.773.671-1.205a4.921 4.921 0 00.254-1.529c0-.593-.145-1.205-.635-1.583-.563-.45-1.542-.557-2.25-.593l-.272-.018v-.54l.272-.018c1.125-.036 2.377-.288 3.211-1.097.817-.792 1.052-1.889 1.052-2.986 0-.63-.108-1.403-.634-1.817-.581-.467-1.833-.521-2.558-.521h-11.411v-.018zm3.719 5.918l.689-2.645h2.685c.363 0 .943.018 1.252.216.308.198.399.522.399.864 0 .503-.182.917-.617 1.187-.454.306-1.07.36-1.615.36h-2.793v.018zm-1.27 4.676l.762-2.86h2.884c.363 0 .835.036 1.161.234.309.198.436.504.436.863 0 .522-.2.972-.617 1.314-.454.36-1.016.467-1.579.467h-3.047v-.018zm13.715 2.716h6.404L286 9.45h-6.023l-2.721 4.335a6.774 6.774 0 00-.436.791c-.163.36-.308.72-.453 1.08l-.544 1.474v-1.565c0-.305-.019-.593-.037-.899a9.567 9.567 0 00-.108-1.007l-.617-4.21h-5.751l2.667 10.415-2.05 2.914z" fill="#ACABAD"/><path d="M65.64 38.579l2.475-6.443h.918l2.637 6.443h-.97l-.751-1.952h-2.694l-.708 1.952h-.905zm1.86-2.646h2.184l-.672-1.784a17.675 17.675 0 01-.458-1.336 8.213 8.213 0 01-.347 1.23l-.707 1.89zm5.086 2.646v-6.443h2.417c.492 0 .886.066 1.182.198.3.129.532.33.699.602.17.27.255.552.255.848 0 .276-.075.535-.224.778a1.6 1.6 0 01-.677.589c.39.114.689.309.897.584.21.276.316.6.316.976 0 .302-.064.583-.194.844a1.613 1.613 0 01-.47.597 1.982 1.982 0 01-.707.321 4.36 4.36 0 01-1.037.106h-2.457zm.853-3.736h1.393c.378 0 .649-.025.813-.074a.892.892 0 00.487-.321.915.915 0 00.167-.563c0-.214-.05-.401-.153-.562a.766.766 0 00-.44-.334c-.19-.062-.517-.092-.98-.092H73.44v1.946zm0 2.975h1.604c.275 0 .468-.01.58-.03a1.41 1.41 0 00.492-.176.93.93 0 00.325-.356c.085-.158.128-.34.128-.545 0-.24-.062-.448-.185-.624a.958.958 0 00-.514-.374c-.217-.073-.53-.11-.94-.11h-1.49v2.215zm6.488.76v-5.681h-2.123v-.76h5.107v.76h-2.132v5.682h-.852zm3.47-3.137c0-1.07.286-1.906.86-2.51.575-.606 1.316-.909 2.224-.909.595 0 1.131.142 1.609.426.477.284.84.681 1.09 1.191.251.507.377 1.083.377 1.727 0 .654-.132 1.238-.395 1.754a2.713 2.713 0 01-1.12 1.173 3.217 3.217 0 01-1.565.395 3.046 3.046 0 01-1.626-.439 2.827 2.827 0 01-1.086-1.2 3.636 3.636 0 01-.369-1.608zm.878.013c0 .776.208 1.389.624 1.837.42.445.944.668 1.573.668.642 0 1.17-.226 1.582-.677.416-.45.624-1.091.624-1.92 0-.525-.089-.982-.268-1.371a2.008 2.008 0 00-.778-.91 2.087 2.087 0 00-1.147-.325c-.603 0-1.123.208-1.56.624-.433.413-.65 1.104-.65 2.074zm6.629 3.125v-6.443h1.283l1.525 4.562c.14.425.243.742.308.953.073-.234.187-.578.343-1.032l1.542-4.483h1.147v6.443h-.822v-5.392l-1.872 5.392h-.769l-1.863-5.485v5.485h-.822zm7.534-3.138c0-1.07.287-1.906.861-2.51.575-.606 1.316-.909 2.224-.909.595 0 1.131.142 1.608.426.478.284.841.681 1.09 1.191.252.507.378 1.083.378 1.727 0 .654-.132 1.238-.395 1.754a2.713 2.713 0 01-1.121 1.173 3.215 3.215 0 01-1.564.395 3.045 3.045 0 01-1.626-.439 2.827 2.827 0 01-1.086-1.2 3.636 3.636 0 01-.369-1.608zm.879.013c0 .776.208 1.389.624 1.837.419.445.943.668 1.573.668.642 0 1.169-.226 1.582-.677.416-.45.624-1.091.624-1.92 0-.525-.089-.982-.268-1.371a2.003 2.003 0 00-.778-.91 2.085 2.085 0 00-1.147-.325c-.603 0-1.123.208-1.56.624-.433.413-.65 1.104-.65 2.074zm6.695-3.318h4.179v.76h-3.327v1.987h1.538c.569 0 1.02.054 1.354.162.337.109.606.314.809.616.202.298.303.647.303 1.045 0 .326-.073.63-.22.915a1.731 1.731 0 01-.646.69c-.287.178-.776.268-1.468.268h-2.522v-6.443zm.852 5.717h1.705c.46 0 .805-.093 1.033-.28.232-.188.347-.47.347-.845a1.1 1.1 0 00-.197-.668.941.941 0 00-.55-.355c-.234-.059-.634-.088-1.199-.088h-1.139v2.236zm5.298-5.717h.773v5.102l3.428-5.102h.857v6.443h-.774v-5.09l-3.432 5.09h-.852v-6.443zm7.196 0h4.034v6.443h-.853v-5.682h-2.329v3.317c0 .674-.032 1.168-.097 1.481-.061.314-.193.558-.395.734-.202.173-.459.26-.769.26-.188 0-.413-.036-.677-.106l.145-.756a.972.972 0 00.36.088c.194 0 .339-.072.435-.215.097-.147.146-.49.146-1.029v-4.535zm5.736 0h.853v2.751h1.538c.718 0 1.238.084 1.56.25.322.168.554.395.694.682.141.287.211.583.211.887 0 .499-.17.935-.51 1.31-.339.375-.972.563-1.898.563h-2.448v-6.443zm.853 5.717h1.56c.633 0 1.044-.11 1.235-.334a1.21 1.21 0 00.29-.813 1.03 1.03 0 00-.211-.654.93.93 0 00-.554-.352c-.231-.053-.624-.079-1.178-.079h-1.142v2.232zm5.319.726v-6.443h.853v2.646h3.348v-2.646h.853v6.443h-.853v-3.037h-3.348v3.037h-.853zm6.792-6.443h.852v2.751h1.538c1.008 0 1.67.186 1.987.558.319.372.479.794.479 1.266 0 .498-.17.934-.51 1.31-.34.372-.971.558-1.894.558h-2.452v-6.443zm.852 5.717h1.56c.536 0 .925-.089 1.165-.268.243-.181.365-.47.365-.865 0-.27-.074-.495-.22-.677a.972.972 0 00-.567-.347c-.232-.05-.618-.075-1.16-.075h-1.143v2.232zm4.777-5.717h.853v6.443h-.853v-6.443zm2.586 6.443v-6.443h4.658v.76h-3.806v1.974h3.564v.756h-3.564v2.192h3.956v.76h-4.808zm8.323 0l2.474-6.443h.918l2.637 6.443h-.971l-.752-1.952h-2.694l-.707 1.952h-.905zm1.859-2.646h2.184l-.673-1.784a17.849 17.849 0 01-.457-1.336 8.26 8.26 0 01-.347 1.23l-.707 1.89zm5.134-3.797h.853v2.822c.389 0 .663-.075.822-.225.158-.152.36-.515.606-1.09.179-.421.325-.719.44-.892.117-.175.282-.322.496-.439.214-.12.45-.18.708-.18.328 0 .501.003.518.009v.738l-.171-.005a8.59 8.59 0 00-.172-.004c-.272 0-.474.066-.606.198-.135.132-.289.413-.461.844-.217.544-.4.889-.55 1.032a1.714 1.714 0 01-.536.339c.416.114.826.498 1.231 1.151l1.327 2.145h-1.059l-1.077-1.75c-.296-.483-.543-.814-.743-.993-.199-.181-.457-.272-.773-.272v3.015h-.853v-6.443zm5.517 0h.853v2.822c.39 0 .663-.075.822-.225.158-.152.36-.515.606-1.09.179-.421.325-.719.44-.892.117-.175.282-.322.496-.439.214-.12.45-.18.708-.18.328 0 .501.003.518.009v.738l-.171-.005a8.59 8.59 0 00-.172-.004c-.272 0-.474.066-.606.198-.135.132-.289.413-.461.844-.217.544-.4.889-.55 1.032a1.714 1.714 0 01-.536.339c.416.114.826.498 1.231 1.151l1.327 2.145h-1.059l-1.077-1.75c-.296-.483-.543-.814-.743-.993-.199-.181-.457-.272-.773-.272v3.015h-.853v-6.443zm4.959 0h.862l2.1 3.947 1.837-3.947h.848l-2.417 5.01c-.301.627-.549 1.037-.742 1.23-.194.194-.471.29-.831.29-.22 0-.489-.05-.809-.153v-.73c.229.132.471.198.726.198a.784.784 0 00.536-.198c.152-.135.319-.44.501-.914l-2.611-4.733zm6.616 6.443v-6.443h1.283l1.525 4.562c.141.425.243.742.308.953.073-.234.187-.578.343-1.032l1.542-4.483h1.147v6.443h-.822v-5.392l-1.872 5.392h-.769l-1.863-5.485v5.485h-.822zm7.143-6.443h.861l2.101 3.947 1.837-3.947h.848l-2.417 5.01c-.302.627-.549 1.037-.743 1.23-.193.194-.47.29-.83.29-.22 0-.489-.05-.809-.153v-.73c.229.132.47.198.725.198a.782.782 0 00.536-.198c.153-.135.32-.44.501-.914l-2.61-4.733zm6.814 0h4.034v6.443h-.853v-5.682h-2.329v3.317c0 .674-.032 1.168-.097 1.481-.061.314-.193.558-.395.734-.202.173-.459.26-.769.26-.188 0-.413-.036-.677-.106l.145-.756a.972.972 0 00.36.088.49.49 0 00.436-.215c.096-.147.145-.49.145-1.029v-4.535zm10.803 6.443v-6.443h-2.856c-.574 0-1.011.059-1.31.176a1.42 1.42 0 00-.716.61 1.826 1.826 0 00-.268.972c0 .457.148.842.444 1.156.296.313.753.513 1.371.598a2.195 2.195 0 00-.514.32 4.443 4.443 0 00-.708.857l-1.12 1.754h1.072l.852-1.34c.249-.387.454-.683.616-.888.161-.206.304-.349.43-.431.129-.082.259-.14.391-.172.097-.02.255-.03.475-.03h.989v2.86h.852zm-.852-3.6h-1.833c-.389 0-.694-.04-.914-.118a.986.986 0 01-.501-.387 1.058 1.058 0 01-.171-.58c0-.305.11-.555.329-.751.223-.197.573-.295 1.051-.295h2.039v2.132zm4.168 3.6v-5.682h-2.123v-.76h5.107v.76h-2.132v5.682h-.852zm3.469-3.138c0-1.07.287-1.906.861-2.51.574-.606 1.316-.909 2.224-.909.595 0 1.131.142 1.608.426.478.284.841.681 1.09 1.191.252.507.378 1.083.378 1.727 0 .654-.132 1.238-.395 1.754a2.718 2.718 0 01-1.121 1.173 3.22 3.22 0 01-1.565.395 3.048 3.048 0 01-1.626-.439 2.829 2.829 0 01-1.085-1.2 3.637 3.637 0 01-.369-1.608zm.879.013c0 .776.208 1.389.624 1.837.419.445.943.668 1.573.668.642 0 1.169-.226 1.582-.677.416-.45.624-1.091.624-1.92 0-.525-.089-.982-.268-1.371a2.01 2.01 0 00-.778-.91 2.087 2.087 0 00-1.147-.325c-.603 0-1.123.208-1.56.624-.433.413-.65 1.104-.65 2.074zm6.655 3.125v-6.443h2.43c.428 0 .755.02.98.062.317.053.582.154.796.303.213.147.385.353.514.62.132.266.198.56.198.878 0 .548-.175 1.013-.523 1.394-.349.377-.979.566-1.89.566h-1.652v2.62h-.853zm.853-3.38h1.665c.551 0 .942-.102 1.173-.307.232-.206.348-.494.348-.866 0-.27-.069-.5-.207-.69a.942.942 0 00-.536-.382c-.144-.038-.409-.057-.795-.057h-1.648v2.302zm5.464-3.063h.852v2.751h1.539c1.007 0 1.669.186 1.986.558.319.372.479.794.479 1.266 0 .498-.17.934-.51 1.31-.34.372-.971.558-1.894.558h-2.452v-6.443zm.852 5.717h1.561c.536 0 .924-.089 1.164-.268.243-.181.365-.47.365-.865 0-.27-.073-.495-.22-.677a.966.966 0 00-.567-.347c-.231-.05-.618-.075-1.16-.075h-1.143v2.232zm4.777-5.717h.853v6.443h-.853v-6.443zm5.308 6.443v-6.443h2.417c.493 0 .887.066 1.182.198.299.129.532.33.699.602.17.27.255.552.255.848 0 .276-.075.535-.224.778-.149.243-.375.44-.677.589.39.114.689.309.897.584.211.276.316.6.316.976 0 .302-.064.583-.193.844a1.618 1.618 0 01-.47.597 1.996 1.996 0 01-.708.321 4.36 4.36 0 01-1.037.106h-2.457zm.853-3.736h1.393c.378 0 .649-.025.813-.074a.895.895 0 00.488-.321.918.918 0 00.167-.563 1.03 1.03 0 00-.154-.562.767.767 0 00-.44-.334c-.19-.062-.517-.092-.98-.092h-1.287v1.946zm0 2.975h1.604c.275 0 .469-.01.58-.03a1.41 1.41 0 00.492-.176.93.93 0 00.325-.356c.085-.158.128-.34.128-.545 0-.24-.062-.448-.185-.624a.957.957 0 00-.514-.374c-.217-.073-.53-.11-.94-.11h-1.49v2.215zm8.204.76v-6.442h1.283l1.525 4.562c.141.425.243.742.308.953.073-.234.187-.578.342-1.032l1.543-4.483h1.147v6.443h-.822v-5.392l-1.872 5.392h-.769l-1.863-5.485v5.485h-.822zm7.807-6.442h.773v5.102l3.428-5.102h.857v6.443h-.774v-5.09l-3.432 5.09h-.852v-6.443zm6.752 6.443v-6.443h.852v2.646h3.349v-2.646h.852v6.443h-.852v-3.037h-3.349v3.037h-.852zm11.344-2.26l.852.216c-.178.7-.501 1.235-.967 1.604-.462.366-1.029.55-1.7.55-.695 0-1.26-.141-1.696-.422-.434-.285-.765-.695-.994-1.23a4.417 4.417 0 01-.338-1.728c0-.67.127-1.255.382-1.753.258-.501.623-.88 1.095-1.139a3.2 3.2 0 011.564-.39c.645 0 1.187.163 1.626.492.439.328.746.79.918 1.384l-.839.198c-.149-.47-.366-.81-.65-1.024-.285-.214-.642-.321-1.073-.321-.495 0-.909.118-1.243.356a1.886 1.886 0 00-.699.958 3.82 3.82 0 00-.202 1.235c0 .547.079 1.026.237 1.437.161.407.41.712.747.914a2.09 2.09 0 001.094.303c.478 0 .882-.138 1.213-.413.331-.276.556-.684.673-1.226zm2.19-4.183h.853v2.822c.389 0 .663-.075.821-.225.159-.152.361-.515.607-1.09.179-.421.325-.719.439-.892.118-.175.283-.322.497-.439.214-.12.45-.18.707-.18.329 0 .501.003.519.009v.738l-.171-.005a8.59 8.59 0 00-.172-.004c-.272 0-.474.066-.606.198-.135.132-.289.413-.462.844-.216.544-.4.889-.549 1.032a1.714 1.714 0 01-.536.339c.416.114.826.498 1.23 1.151l1.328 2.145h-1.06l-1.076-1.75c-.296-.483-.544-.814-.743-.993-.199-.181-.457-.272-.773-.272v3.015h-.853v-6.443zm5.522 6.443v-6.443h4.658v.76h-3.806v1.974h3.564v.756h-3.564v2.192h3.955v.76h-4.807z" fill="#444"/><path fill-rule="evenodd" clip-rule="evenodd" d="M5.08 4.983l2.068.593.472.792 1.016-1.745L8.4 1.6 5.08 4.983zM18.07 3.04l-.055 4.083.69.018.054-4.12-.69.019zM.652 16.009l.69.575 7.093-6.457 44.356 4.497.054-.612-44.3-5.234-7.892 7.23zm9.47-13.58L9.996 5l1.433.161.526 1.116 1.488.323V3.957h1.488v2.518l1.306.27V3.328l-5.95-1.457-.164.557zm15.348 4.1l2.195-.36 6.767-3.417 4.444 4.55-.036.325 3.265-.018 2.885-.9 7.837.432-.181 1.457-4.717 1.223-.2 1.295-1.16-.144V7.717l-2.196.018-.109 2.95-2.92-.378-.018-1.997-.744.18.054 1.727-1.923-.252-11.72-1.51-1.523-.037V6.53zm2.014 1.8l2.467-.666 5.497-.018 1.705-.324-3.084-3.004-6.585 2.464v1.547z" fill="#000"/><path fill-rule="evenodd" clip-rule="evenodd" d="M14.459 38.979c2.558-4.533 5.043-8.904 7.42-13.113 2.285-4.047 4.517-7.968 6.657-11.746 2.577.306 5.062.612 7.457.918 2.322.287 4.59.557 6.766.827l.273 10.936c.09 3.688.2 7.411.29 11.134-1.288.054-2.594.09-3.919.144-1.36.054-2.74.108-4.136.144l-.054-3.435c-1.143.018-2.322.036-3.502.036l-3.664.054a703.4 703.4 0 01-1.869 3.687c-1.85.072-3.719.144-5.66.198-1.977.054-3.991.144-6.06.216zm16.218-10.145c1.578.036 3.12.09 4.626.126-.018-1.44-.054-2.878-.072-4.317l-.055-4.3c-.725 1.368-1.47 2.753-2.213 4.174l-2.286 4.317z" fill="#000001"/><path fill-rule="evenodd" clip-rule="evenodd" d="M15.148 38.44c2.558-4.534 5.044-8.905 7.42-13.114 2.286-4.047 4.517-7.968 6.658-11.745 2.576.305 5.061.611 7.456.917 2.322.288 4.59.558 6.767.827l.272 10.937c.09 3.687.2 7.41.29 11.134-1.288.054-2.594.09-3.918.144-1.36.054-2.74.108-4.137.144l-.054-3.436c-1.143.018-2.322.036-3.501.036l-3.665.054c-.617 1.223-1.233 2.446-1.868 3.687-1.85.072-3.72.144-5.66.198-1.978.072-3.992.144-6.06.216zm16.219-10.146c1.578.036 3.12.09 4.626.126a343.362 343.362 0 00-.073-4.317l-.054-4.299c-.726 1.367-1.47 2.752-2.213 4.173a525.106 525.106 0 01-2.286 4.317z" fill="#fff"/><path fill-rule="evenodd" clip-rule="evenodd" d="M16.98 37.846c1.651-.054 2.558-.18 4.21-.252 1.759-.072 3.519-.126 5.278-.198a291.48 291.48 0 011.706-3.346l.181-.342h.381l3.665-.054c1.16-.018 2.34-.036 3.501-.036h.635v.63c.018.935.036 1.87.036 2.806 1.161-.036 2.322-.09 3.502-.126 1.088-.036 2.195-.072 3.283-.126l-.272-10.522-.272-10.397-6.223-.756c-2.34-.287-3.936-.521-6.295-.809-2.14 3.795-4.3 7.59-6.44 11.386-2.286 4.047-4.59 8.094-6.876 12.142zm13.842-9.84c.762-1.439 1.524-2.878 2.286-4.335.744-1.385 1.47-2.77 2.214-4.173l1.16-2.176.019 2.464.054 4.3c.018 1.438.036 2.877.073 4.316l.018.648-.653-.018c-1.542-.036-3.084-.09-4.626-.126l-1.016-.018.471-.882z" fill="#FCB51E"/><path fill-rule="evenodd" clip-rule="evenodd" d="M52.465 37.756L8.817 39.05l.163-28.744-.707.018.036 2.374-6.404 5.217-.018.521 6.367-4.803v28.223l.726.252-.018-2.375 43.467-1.403.036-.575z" fill="#E0E0DF"/><path fill-rule="evenodd" clip-rule="evenodd" d="M8.091 6.026l.127 2.194h.617V6.098l-.744-.072z" fill="#fff"/></svg>